%TF.GenerationSoftware,KiCad,Pcbnew,(5.1.6)-1*%
%TF.CreationDate,2021-07-23T13:19:56-04:00*%
%TF.ProjectId,RTC-12887-switch,5254432d-3132-4383-9837-2d7377697463,rev?*%
%TF.SameCoordinates,Original*%
%TF.FileFunction,Copper,L2,Bot*%
%TF.FilePolarity,Positive*%
%FSLAX46Y46*%
G04 Gerber Fmt 4.6, Leading zero omitted, Abs format (unit mm)*
G04 Created by KiCad (PCBNEW (5.1.6)-1) date 2021-07-23 13:19:56*
%MOMM*%
%LPD*%
G01*
G04 APERTURE LIST*
%TA.AperFunction,ComponentPad*%
%ADD10R,1.700000X1.700000*%
%TD*%
%TA.AperFunction,ComponentPad*%
%ADD11O,1.700000X1.700000*%
%TD*%
%TA.AperFunction,SMDPad,CuDef*%
%ADD12R,1.600000X1.000000*%
%TD*%
%TA.AperFunction,SMDPad,CuDef*%
%ADD13R,2.500000X3.000000*%
%TD*%
%TA.AperFunction,ComponentPad*%
%ADD14R,1.600000X1.600000*%
%TD*%
%TA.AperFunction,ComponentPad*%
%ADD15O,1.600000X1.600000*%
%TD*%
%TA.AperFunction,SMDPad,CuDef*%
%ADD16C,0.100000*%
%TD*%
%TA.AperFunction,ViaPad*%
%ADD17C,0.800000*%
%TD*%
%TA.AperFunction,Conductor*%
%ADD18C,0.250000*%
%TD*%
%TA.AperFunction,Conductor*%
%ADD19C,0.400000*%
%TD*%
%TA.AperFunction,Conductor*%
%ADD20C,0.254000*%
%TD*%
G04 APERTURE END LIST*
D10*
%TO.P,J1,1*%
%TO.N,/BC*%
X121412000Y-78359000D03*
D11*
%TO.P,J1,3*%
%TO.N,/COM*%
X126492000Y-78359000D03*
%TO.P,J1,4*%
X129032000Y-78359000D03*
%TD*%
D12*
%TO.P,Y1,1*%
%TO.N,/X1*%
X128847000Y-104902000D03*
%TO.P,Y1,2*%
%TO.N,/X2*%
X128847000Y-102362000D03*
D13*
%TO.P,Y1,3*%
%TO.N,N/C*%
X122297000Y-103632000D03*
%TD*%
D14*
%TO.P,IC2,1*%
%TO.N,/MOT*%
X117653001Y-77825001D03*
D15*
%TO.P,IC2,13*%
%TO.N,/CS*%
X132893001Y-105765001D03*
%TO.P,IC2,2*%
%TO.N,Net-(IC2-Pad2)*%
X117653001Y-80365001D03*
%TO.P,IC2,14*%
%TO.N,/AS*%
X132893001Y-103225001D03*
%TO.P,IC2,3*%
%TO.N,Net-(IC2-Pad3)*%
X117653001Y-82905001D03*
%TO.P,IC2,15*%
%TO.N,/RW*%
X132893001Y-100685001D03*
%TO.P,IC2,4*%
%TO.N,/AD0*%
X117653001Y-85445001D03*
%TO.P,IC2,16*%
%TO.N,Net-(IC2-Pad16)*%
X132893001Y-98145001D03*
%TO.P,IC2,5*%
%TO.N,/AD1*%
X117653001Y-87985001D03*
%TO.P,IC2,17*%
%TO.N,/DS*%
X132893001Y-95605001D03*
%TO.P,IC2,6*%
%TO.N,/AD2*%
X117653001Y-90525001D03*
%TO.P,IC2,18*%
%TO.N,/RESET*%
X132893001Y-93065001D03*
%TO.P,IC2,7*%
%TO.N,/AD3*%
X117653001Y-93065001D03*
%TO.P,IC2,19*%
%TO.N,/IRQ*%
X132893001Y-90525001D03*
%TO.P,IC2,8*%
%TO.N,/AD4*%
X117653001Y-95605001D03*
%TO.P,IC2,20*%
%TO.N,Net-(IC2-Pad20)*%
X132893001Y-87985001D03*
%TO.P,IC2,9*%
%TO.N,/AD5*%
X117653001Y-98145001D03*
%TO.P,IC2,21*%
%TO.N,Net-(IC2-Pad21)*%
X132893001Y-85445001D03*
%TO.P,IC2,10*%
%TO.N,/AD6*%
X117653001Y-100685001D03*
%TO.P,IC2,22*%
%TO.N,Net-(IC2-Pad22)*%
X132893001Y-82905001D03*
%TO.P,IC2,11*%
%TO.N,/AD7*%
X117653001Y-103225001D03*
%TO.P,IC2,23*%
%TO.N,/SQW*%
X132893001Y-80365001D03*
%TO.P,IC2,12*%
%TO.N,GND*%
X117653001Y-105765001D03*
%TO.P,IC2,24*%
%TO.N,/VCC*%
X132893001Y-77825001D03*
%TD*%
D10*
%TO.P,EN,1*%
%TO.N,/COM*%
X127635000Y-81153000D03*
D11*
%TO.P,EN,2*%
%TO.N,GND*%
X130175000Y-81153000D03*
%TD*%
%TA.AperFunction,SMDPad,CuDef*%
D16*
%TO.P,IC1,1*%
%TO.N,/AD0*%
G36*
X123471557Y-97106977D02*
G01*
X124514539Y-96063995D01*
X124938803Y-96488259D01*
X123895821Y-97531241D01*
X123471557Y-97106977D01*
G37*
%TD.AperFunction*%
%TA.AperFunction,SMDPad,CuDef*%
%TO.P,IC1,2*%
%TO.N,/AD1*%
G36*
X122905872Y-96541291D02*
G01*
X123948854Y-95498309D01*
X124373118Y-95922573D01*
X123330136Y-96965555D01*
X122905872Y-96541291D01*
G37*
%TD.AperFunction*%
%TA.AperFunction,SMDPad,CuDef*%
%TO.P,IC1,3*%
%TO.N,/AD2*%
G36*
X122340187Y-95975606D02*
G01*
X123383169Y-94932624D01*
X123807433Y-95356888D01*
X122764451Y-96399870D01*
X122340187Y-95975606D01*
G37*
%TD.AperFunction*%
%TA.AperFunction,SMDPad,CuDef*%
%TO.P,IC1,4*%
%TO.N,Net-(IC1-Pad4)*%
G36*
X121774501Y-95409920D02*
G01*
X122817483Y-94366938D01*
X123241747Y-94791202D01*
X122198765Y-95834184D01*
X121774501Y-95409920D01*
G37*
%TD.AperFunction*%
%TA.AperFunction,SMDPad,CuDef*%
%TO.P,IC1,5*%
%TO.N,/AD3*%
G36*
X121208816Y-94844235D02*
G01*
X122251798Y-93801253D01*
X122676062Y-94225517D01*
X121633080Y-95268499D01*
X121208816Y-94844235D01*
G37*
%TD.AperFunction*%
%TA.AperFunction,SMDPad,CuDef*%
%TO.P,IC1,6*%
%TO.N,Net-(IC1-Pad6)*%
G36*
X120643130Y-94278549D02*
G01*
X121686112Y-93235567D01*
X122110376Y-93659831D01*
X121067394Y-94702813D01*
X120643130Y-94278549D01*
G37*
%TD.AperFunction*%
%TA.AperFunction,SMDPad,CuDef*%
%TO.P,IC1,7*%
%TO.N,/AD4*%
G36*
X120077445Y-93712864D02*
G01*
X121120427Y-92669882D01*
X121544691Y-93094146D01*
X120501709Y-94137128D01*
X120077445Y-93712864D01*
G37*
%TD.AperFunction*%
%TA.AperFunction,SMDPad,CuDef*%
%TO.P,IC1,8*%
%TO.N,/AD5*%
G36*
X119511759Y-93147179D02*
G01*
X120554741Y-92104197D01*
X120979005Y-92528461D01*
X119936023Y-93571443D01*
X119511759Y-93147179D01*
G37*
%TD.AperFunction*%
%TA.AperFunction,SMDPad,CuDef*%
%TO.P,IC1,9*%
%TO.N,/AD6*%
G36*
X120554741Y-91537803D02*
G01*
X119511759Y-90494821D01*
X119936023Y-90070557D01*
X120979005Y-91113539D01*
X120554741Y-91537803D01*
G37*
%TD.AperFunction*%
%TA.AperFunction,SMDPad,CuDef*%
%TO.P,IC1,10*%
%TO.N,Net-(IC1-Pad10)*%
G36*
X121120427Y-90972118D02*
G01*
X120077445Y-89929136D01*
X120501709Y-89504872D01*
X121544691Y-90547854D01*
X121120427Y-90972118D01*
G37*
%TD.AperFunction*%
%TA.AperFunction,SMDPad,CuDef*%
%TO.P,IC1,11*%
%TO.N,/AD7*%
G36*
X121686112Y-90406433D02*
G01*
X120643130Y-89363451D01*
X121067394Y-88939187D01*
X122110376Y-89982169D01*
X121686112Y-90406433D01*
G37*
%TD.AperFunction*%
%TA.AperFunction,SMDPad,CuDef*%
%TO.P,IC1,12*%
%TO.N,GND*%
G36*
X122251798Y-89840747D02*
G01*
X121208816Y-88797765D01*
X121633080Y-88373501D01*
X122676062Y-89416483D01*
X122251798Y-89840747D01*
G37*
%TD.AperFunction*%
%TA.AperFunction,SMDPad,CuDef*%
%TO.P,IC1,13*%
%TO.N,/CS*%
G36*
X122817483Y-89275062D02*
G01*
X121774501Y-88232080D01*
X122198765Y-87807816D01*
X123241747Y-88850798D01*
X122817483Y-89275062D01*
G37*
%TD.AperFunction*%
%TA.AperFunction,SMDPad,CuDef*%
%TO.P,IC1,14*%
%TO.N,/AS*%
G36*
X123383169Y-88709376D02*
G01*
X122340187Y-87666394D01*
X122764451Y-87242130D01*
X123807433Y-88285112D01*
X123383169Y-88709376D01*
G37*
%TD.AperFunction*%
%TA.AperFunction,SMDPad,CuDef*%
%TO.P,IC1,15*%
%TO.N,Net-(IC1-Pad15)*%
G36*
X123948854Y-88143691D02*
G01*
X122905872Y-87100709D01*
X123330136Y-86676445D01*
X124373118Y-87719427D01*
X123948854Y-88143691D01*
G37*
%TD.AperFunction*%
%TA.AperFunction,SMDPad,CuDef*%
%TO.P,IC1,16*%
%TO.N,/RW*%
G36*
X124514539Y-87578005D02*
G01*
X123471557Y-86535023D01*
X123895821Y-86110759D01*
X124938803Y-87153741D01*
X124514539Y-87578005D01*
G37*
%TD.AperFunction*%
%TA.AperFunction,SMDPad,CuDef*%
%TO.P,IC1,17*%
%TO.N,GND*%
G36*
X125505197Y-87153741D02*
G01*
X126548179Y-86110759D01*
X126972443Y-86535023D01*
X125929461Y-87578005D01*
X125505197Y-87153741D01*
G37*
%TD.AperFunction*%
%TA.AperFunction,SMDPad,CuDef*%
%TO.P,IC1,18*%
%TO.N,/DS*%
G36*
X126070882Y-87719427D02*
G01*
X127113864Y-86676445D01*
X127538128Y-87100709D01*
X126495146Y-88143691D01*
X126070882Y-87719427D01*
G37*
%TD.AperFunction*%
%TA.AperFunction,SMDPad,CuDef*%
%TO.P,IC1,19*%
%TO.N,/RESET*%
G36*
X126636567Y-88285112D02*
G01*
X127679549Y-87242130D01*
X128103813Y-87666394D01*
X127060831Y-88709376D01*
X126636567Y-88285112D01*
G37*
%TD.AperFunction*%
%TA.AperFunction,SMDPad,CuDef*%
%TO.P,IC1,20*%
%TO.N,Net-(IC1-Pad20)*%
G36*
X127202253Y-88850798D02*
G01*
X128245235Y-87807816D01*
X128669499Y-88232080D01*
X127626517Y-89275062D01*
X127202253Y-88850798D01*
G37*
%TD.AperFunction*%
%TA.AperFunction,SMDPad,CuDef*%
%TO.P,IC1,21*%
%TO.N,/IRQ*%
G36*
X127767938Y-89416483D02*
G01*
X128810920Y-88373501D01*
X129235184Y-88797765D01*
X128192202Y-89840747D01*
X127767938Y-89416483D01*
G37*
%TD.AperFunction*%
%TA.AperFunction,SMDPad,CuDef*%
%TO.P,IC1,22*%
%TO.N,/BC*%
G36*
X128333624Y-89982169D02*
G01*
X129376606Y-88939187D01*
X129800870Y-89363451D01*
X128757888Y-90406433D01*
X128333624Y-89982169D01*
G37*
%TD.AperFunction*%
%TA.AperFunction,SMDPad,CuDef*%
%TO.P,IC1,23*%
%TO.N,Net-(IC1-Pad23)*%
G36*
X128899309Y-90547854D02*
G01*
X129942291Y-89504872D01*
X130366555Y-89929136D01*
X129323573Y-90972118D01*
X128899309Y-90547854D01*
G37*
%TD.AperFunction*%
%TA.AperFunction,SMDPad,CuDef*%
%TO.P,IC1,24*%
%TO.N,Net-(IC1-Pad24)*%
G36*
X129464995Y-91113539D02*
G01*
X130507977Y-90070557D01*
X130932241Y-90494821D01*
X129889259Y-91537803D01*
X129464995Y-91113539D01*
G37*
%TD.AperFunction*%
%TA.AperFunction,SMDPad,CuDef*%
%TO.P,IC1,25*%
%TO.N,Net-(IC1-Pad25)*%
G36*
X130507977Y-93571443D02*
G01*
X129464995Y-92528461D01*
X129889259Y-92104197D01*
X130932241Y-93147179D01*
X130507977Y-93571443D01*
G37*
%TD.AperFunction*%
%TA.AperFunction,SMDPad,CuDef*%
%TO.P,IC1,26*%
%TO.N,/SQW*%
G36*
X129942291Y-94137128D02*
G01*
X128899309Y-93094146D01*
X129323573Y-92669882D01*
X130366555Y-93712864D01*
X129942291Y-94137128D01*
G37*
%TD.AperFunction*%
%TA.AperFunction,SMDPad,CuDef*%
%TO.P,IC1,27*%
%TO.N,Net-(IC1-Pad27)*%
G36*
X129376606Y-94702813D02*
G01*
X128333624Y-93659831D01*
X128757888Y-93235567D01*
X129800870Y-94278549D01*
X129376606Y-94702813D01*
G37*
%TD.AperFunction*%
%TA.AperFunction,SMDPad,CuDef*%
%TO.P,IC1,28*%
%TO.N,/VCC*%
G36*
X128810920Y-95268499D02*
G01*
X127767938Y-94225517D01*
X128192202Y-93801253D01*
X129235184Y-94844235D01*
X128810920Y-95268499D01*
G37*
%TD.AperFunction*%
%TA.AperFunction,SMDPad,CuDef*%
%TO.P,IC1,29*%
%TO.N,/MOT*%
G36*
X128245235Y-95834184D02*
G01*
X127202253Y-94791202D01*
X127626517Y-94366938D01*
X128669499Y-95409920D01*
X128245235Y-95834184D01*
G37*
%TD.AperFunction*%
%TA.AperFunction,SMDPad,CuDef*%
%TO.P,IC1,30*%
%TO.N,/X1*%
G36*
X127679549Y-96399870D02*
G01*
X126636567Y-95356888D01*
X127060831Y-94932624D01*
X128103813Y-95975606D01*
X127679549Y-96399870D01*
G37*
%TD.AperFunction*%
%TA.AperFunction,SMDPad,CuDef*%
%TO.P,IC1,31*%
%TO.N,/X2*%
G36*
X127113864Y-96965555D02*
G01*
X126070882Y-95922573D01*
X126495146Y-95498309D01*
X127538128Y-96541291D01*
X127113864Y-96965555D01*
G37*
%TD.AperFunction*%
%TA.AperFunction,SMDPad,CuDef*%
%TO.P,IC1,32*%
%TO.N,Net-(IC1-Pad32)*%
G36*
X126548179Y-97531241D02*
G01*
X125505197Y-96488259D01*
X125929461Y-96063995D01*
X126972443Y-97106977D01*
X126548179Y-97531241D01*
G37*
%TD.AperFunction*%
%TD*%
D17*
%TO.N,GND*%
X127381000Y-91821000D03*
X120650000Y-87122000D03*
X119888000Y-99314000D03*
X119888000Y-101854000D03*
X123444000Y-81661000D03*
X125539500Y-86169500D03*
X130683000Y-97028000D03*
X129540000Y-106299000D03*
%TO.N,/MOT*%
X127469017Y-92945222D03*
%TO.N,/AD0*%
X122821692Y-98031306D03*
%TO.N,/AD1*%
X121793000Y-98044000D03*
%TO.N,/AD2*%
X121539000Y-97028000D03*
%TO.N,/AD3*%
X118618000Y-94107000D03*
X120733957Y-95480057D03*
%TO.N,/AD5*%
X119634000Y-92202000D03*
%TO.N,/AD6*%
X122428000Y-92964014D03*
%TO.N,/AD7*%
X124206004Y-92964000D03*
%TO.N,/CS*%
X125101409Y-93790270D03*
%TO.N,/AS*%
X125826419Y-92892459D03*
%TO.N,/RW*%
X126619000Y-93599004D03*
%TO.N,/DS*%
X128016000Y-86233000D03*
%TO.N,/RESET*%
X128651000Y-86868000D03*
%TO.N,/IRQ*%
X129628990Y-87976336D03*
%TO.N,/BC*%
X130556000Y-86868000D03*
%TO.N,/SQW*%
X132080000Y-96901000D03*
X130556000Y-94361000D03*
%TO.N,/VCC*%
X127127000Y-90551000D03*
X127762000Y-85405002D03*
%TO.N,/COM*%
X130810000Y-105283000D03*
X130937000Y-84709000D03*
%TD*%
D18*
%TO.N,/X1*%
X129972001Y-98268058D02*
X127370190Y-95666247D01*
X129972001Y-103776999D02*
X129972001Y-98268058D01*
X128847000Y-104902000D02*
X129972001Y-103776999D01*
%TO.N,GND*%
X120650000Y-87814685D02*
X121942439Y-89107124D01*
X120650000Y-87122000D02*
X120650000Y-87814685D01*
X130175000Y-81919000D02*
X130175000Y-81153000D01*
X126238820Y-85855180D02*
X130175000Y-81919000D01*
X126238820Y-86844382D02*
X126238820Y-85855180D01*
X124841000Y-85471000D02*
X122301000Y-85471000D01*
X126238820Y-86844382D02*
X126214382Y-86844382D01*
X122301000Y-85471000D02*
X120650000Y-87122000D01*
X126214382Y-86844382D02*
X125539500Y-86169500D01*
X125539500Y-86169500D02*
X124841000Y-85471000D01*
X130048000Y-104775000D02*
X130048000Y-105791000D01*
X130683000Y-97028000D02*
X130683000Y-104140000D01*
X130048000Y-105791000D02*
X129540000Y-106299000D01*
X130683000Y-104140000D02*
X130048000Y-104775000D01*
%TO.N,/X2*%
X128847000Y-98274427D02*
X126804505Y-96231932D01*
X128847000Y-102362000D02*
X128847000Y-98274427D01*
%TO.N,/MOT*%
X127442928Y-94607613D02*
X127442928Y-92971311D01*
X127442928Y-92971311D02*
X127469017Y-92945222D01*
X127935876Y-95100561D02*
X127442928Y-94607613D01*
%TO.N,/AD0*%
X122971492Y-98031306D02*
X122821692Y-98031306D01*
X124205180Y-96797618D02*
X122971492Y-98031306D01*
%TO.N,/AD1*%
X123639495Y-96231932D02*
X123605062Y-96231932D01*
X121793000Y-97885380D02*
X123446448Y-96231932D01*
X121793000Y-98044000D02*
X121793000Y-97885380D01*
X123446448Y-96231932D02*
X123639495Y-96231932D01*
%TO.N,/AD2*%
X123073810Y-95666247D02*
X123073810Y-95910612D01*
X121712057Y-97028000D02*
X123073810Y-95666247D01*
X121539000Y-97028000D02*
X121712057Y-97028000D01*
%TO.N,/AD3*%
X117653001Y-93142001D02*
X118618000Y-94107000D01*
X117653001Y-93065001D02*
X117653001Y-93142001D01*
X120997258Y-95480057D02*
X120733957Y-95480057D01*
X121942439Y-94534876D02*
X120997258Y-95480057D01*
%TO.N,/AD4*%
X118609572Y-95605001D02*
X120811068Y-93403505D01*
X117653001Y-95605001D02*
X118609572Y-95605001D01*
%TO.N,/AD5*%
X119634000Y-92226438D02*
X120245382Y-92837820D01*
X119634000Y-92202000D02*
X119634000Y-92226438D01*
%TO.N,/AD6*%
X122405216Y-92964014D02*
X122428000Y-92964014D01*
X120245382Y-90804180D02*
X122405216Y-92964014D01*
%TO.N,/AD7*%
X124206004Y-92502061D02*
X124206004Y-92964000D01*
X121376753Y-89672810D02*
X124206004Y-92502061D01*
%TO.N,/CS*%
X132893001Y-105765001D02*
X132359999Y-105765001D01*
X122508124Y-88541439D02*
X125101409Y-91134724D01*
X125101409Y-91134724D02*
X125101409Y-93790270D01*
%TO.N,/AS*%
X125826419Y-90728362D02*
X125826419Y-92326774D01*
X123073810Y-87975753D02*
X125826419Y-90728362D01*
X125826419Y-92326774D02*
X125826419Y-92892459D01*
%TO.N,/RW*%
X126365000Y-92271998D02*
X126619000Y-92525998D01*
X124205180Y-86844382D02*
X126365000Y-89004202D01*
X126365000Y-89004202D02*
X126365000Y-92271998D01*
X126619000Y-92525998D02*
X126619000Y-93599004D01*
%TO.N,/DS*%
X127981573Y-86233000D02*
X126804505Y-87410068D01*
X128016000Y-86233000D02*
X127981573Y-86233000D01*
%TO.N,/RESET*%
X128477943Y-86868000D02*
X127370190Y-87975753D01*
X128651000Y-86868000D02*
X128477943Y-86868000D01*
%TO.N,/IRQ*%
X129628990Y-87979695D02*
X129628990Y-87976336D01*
X128501561Y-89107124D02*
X129628990Y-87979695D01*
D19*
%TO.N,/BC*%
X130556000Y-88184057D02*
X130556000Y-86868000D01*
X129067247Y-89672810D02*
X130556000Y-88184057D01*
D18*
%TO.N,/SQW*%
X132893001Y-81228999D02*
X131768000Y-82354000D01*
X132893001Y-80365001D02*
X132893001Y-81228999D01*
X131768000Y-82354000D02*
X131768000Y-93593500D01*
X131768000Y-93593500D02*
X131768000Y-96716000D01*
X131768000Y-96716000D02*
X131953000Y-96901000D01*
X130556000Y-94326573D02*
X129632932Y-93403505D01*
X130556000Y-94361000D02*
X130556000Y-94326573D01*
%TO.N,/VCC*%
X131572000Y-79146002D02*
X132893001Y-77825001D01*
X127762000Y-85405002D02*
X131572000Y-81595002D01*
X131572000Y-81595002D02*
X131572000Y-79146002D01*
X127127000Y-90551000D02*
X128194018Y-91618018D01*
X128008614Y-94041929D02*
X128501561Y-94534876D01*
X128194018Y-93293223D02*
X128008614Y-93478627D01*
X128008614Y-93478627D02*
X128008614Y-94041929D01*
X128194018Y-91618018D02*
X128194018Y-93293223D01*
%TO.N,/COM*%
X130937000Y-84709000D02*
X131318000Y-85090000D01*
X131318000Y-104775000D02*
X131127500Y-104965500D01*
X131318000Y-85090000D02*
X131318000Y-104775000D01*
X131281001Y-104811999D02*
X131127500Y-104965500D01*
X131127500Y-104965500D02*
X130810000Y-105283000D01*
%TD*%
D20*
%TO.N,GND*%
G36*
X119738731Y-95781955D02*
G01*
X119816752Y-95970313D01*
X119930020Y-96139831D01*
X120074183Y-96283994D01*
X120243701Y-96397262D01*
X120432059Y-96475283D01*
X120632018Y-96515057D01*
X120636954Y-96515057D01*
X120621795Y-96537744D01*
X120543774Y-96726102D01*
X120504000Y-96926061D01*
X120504000Y-97129939D01*
X120543774Y-97329898D01*
X120621795Y-97518256D01*
X120735063Y-97687774D01*
X120796383Y-97749094D01*
X120758000Y-97942061D01*
X120758000Y-98145939D01*
X120797774Y-98345898D01*
X120875795Y-98534256D01*
X120989063Y-98703774D01*
X121133226Y-98847937D01*
X121302744Y-98961205D01*
X121491102Y-99039226D01*
X121691061Y-99079000D01*
X121894939Y-99079000D01*
X122094898Y-99039226D01*
X122283256Y-98961205D01*
X122316845Y-98938762D01*
X122331436Y-98948511D01*
X122519794Y-99026532D01*
X122719753Y-99066306D01*
X122923631Y-99066306D01*
X123123590Y-99026532D01*
X123311948Y-98948511D01*
X123481466Y-98835243D01*
X123625629Y-98691080D01*
X123738897Y-98521562D01*
X123816918Y-98333204D01*
X123834925Y-98242674D01*
X123909648Y-98167951D01*
X124020303Y-98157053D01*
X124140001Y-98120743D01*
X124250315Y-98061778D01*
X124347006Y-97982426D01*
X125222000Y-97107432D01*
X126096994Y-97982426D01*
X126193685Y-98061778D01*
X126303999Y-98120743D01*
X126423697Y-98157053D01*
X126548179Y-98169313D01*
X126672661Y-98157053D01*
X126792359Y-98120743D01*
X126902673Y-98061778D01*
X126999364Y-97982426D01*
X127239781Y-97742009D01*
X128087001Y-98589230D01*
X128087000Y-101223928D01*
X128047000Y-101223928D01*
X127922518Y-101236188D01*
X127802820Y-101272498D01*
X127692506Y-101331463D01*
X127595815Y-101410815D01*
X127516463Y-101507506D01*
X127457498Y-101617820D01*
X127421188Y-101737518D01*
X127408928Y-101862000D01*
X127408928Y-102862000D01*
X127421188Y-102986482D01*
X127457498Y-103106180D01*
X127516463Y-103216494D01*
X127595815Y-103313185D01*
X127692506Y-103392537D01*
X127802820Y-103451502D01*
X127922518Y-103487812D01*
X128047000Y-103500072D01*
X129174126Y-103500072D01*
X128910270Y-103763928D01*
X128047000Y-103763928D01*
X127922518Y-103776188D01*
X127802820Y-103812498D01*
X127692506Y-103871463D01*
X127595815Y-103950815D01*
X127516463Y-104047506D01*
X127457498Y-104157820D01*
X127421188Y-104277518D01*
X127408928Y-104402000D01*
X127408928Y-105402000D01*
X127421188Y-105526482D01*
X127457498Y-105646180D01*
X127516463Y-105756494D01*
X127595815Y-105853185D01*
X127692506Y-105932537D01*
X127802820Y-105991502D01*
X127922518Y-106027812D01*
X128047000Y-106040072D01*
X129647000Y-106040072D01*
X129771482Y-106027812D01*
X129891180Y-105991502D01*
X129999821Y-105933431D01*
X130006063Y-105942774D01*
X130150226Y-106086937D01*
X130319744Y-106200205D01*
X130508102Y-106278226D01*
X130708061Y-106318000D01*
X130911939Y-106318000D01*
X131111898Y-106278226D01*
X131300256Y-106200205D01*
X131469774Y-106086937D01*
X131489918Y-106066793D01*
X131513148Y-106183575D01*
X131621321Y-106444728D01*
X131761820Y-106655000D01*
X118770939Y-106655000D01*
X118884038Y-106502421D01*
X119004247Y-106248088D01*
X119044905Y-106114040D01*
X118922916Y-105892001D01*
X117780001Y-105892001D01*
X117780001Y-105912001D01*
X117526001Y-105912001D01*
X117526001Y-105892001D01*
X117506001Y-105892001D01*
X117506001Y-105638001D01*
X117526001Y-105638001D01*
X117526001Y-105618001D01*
X117780001Y-105618001D01*
X117780001Y-105638001D01*
X118922916Y-105638001D01*
X119044905Y-105415962D01*
X119004247Y-105281914D01*
X118884038Y-105027581D01*
X118716520Y-104801587D01*
X118508132Y-104612616D01*
X118322136Y-104501068D01*
X118332728Y-104496681D01*
X118567760Y-104339638D01*
X118767638Y-104139760D01*
X118924681Y-103904728D01*
X119032854Y-103643575D01*
X119088001Y-103366336D01*
X119088001Y-103083666D01*
X119032854Y-102806427D01*
X118924681Y-102545274D01*
X118767638Y-102310242D01*
X118589396Y-102132000D01*
X120408928Y-102132000D01*
X120408928Y-105132000D01*
X120421188Y-105256482D01*
X120457498Y-105376180D01*
X120516463Y-105486494D01*
X120595815Y-105583185D01*
X120692506Y-105662537D01*
X120802820Y-105721502D01*
X120922518Y-105757812D01*
X121047000Y-105770072D01*
X123547000Y-105770072D01*
X123671482Y-105757812D01*
X123791180Y-105721502D01*
X123901494Y-105662537D01*
X123998185Y-105583185D01*
X124077537Y-105486494D01*
X124136502Y-105376180D01*
X124172812Y-105256482D01*
X124185072Y-105132000D01*
X124185072Y-102132000D01*
X124172812Y-102007518D01*
X124136502Y-101887820D01*
X124077537Y-101777506D01*
X123998185Y-101680815D01*
X123901494Y-101601463D01*
X123791180Y-101542498D01*
X123671482Y-101506188D01*
X123547000Y-101493928D01*
X121047000Y-101493928D01*
X120922518Y-101506188D01*
X120802820Y-101542498D01*
X120692506Y-101601463D01*
X120595815Y-101680815D01*
X120516463Y-101777506D01*
X120457498Y-101887820D01*
X120421188Y-102007518D01*
X120408928Y-102132000D01*
X118589396Y-102132000D01*
X118567760Y-102110364D01*
X118335242Y-101955001D01*
X118567760Y-101799638D01*
X118767638Y-101599760D01*
X118924681Y-101364728D01*
X119032854Y-101103575D01*
X119088001Y-100826336D01*
X119088001Y-100543666D01*
X119032854Y-100266427D01*
X118924681Y-100005274D01*
X118767638Y-99770242D01*
X118567760Y-99570364D01*
X118335242Y-99415001D01*
X118567760Y-99259638D01*
X118767638Y-99059760D01*
X118924681Y-98824728D01*
X119032854Y-98563575D01*
X119088001Y-98286336D01*
X119088001Y-98003666D01*
X119032854Y-97726427D01*
X118924681Y-97465274D01*
X118767638Y-97230242D01*
X118567760Y-97030364D01*
X118335242Y-96875001D01*
X118567760Y-96719638D01*
X118767638Y-96519760D01*
X118910546Y-96305882D01*
X119033848Y-96239975D01*
X119149573Y-96145002D01*
X119173376Y-96115998D01*
X119700354Y-95589020D01*
X119738731Y-95781955D01*
G37*
X119738731Y-95781955D02*
X119816752Y-95970313D01*
X119930020Y-96139831D01*
X120074183Y-96283994D01*
X120243701Y-96397262D01*
X120432059Y-96475283D01*
X120632018Y-96515057D01*
X120636954Y-96515057D01*
X120621795Y-96537744D01*
X120543774Y-96726102D01*
X120504000Y-96926061D01*
X120504000Y-97129939D01*
X120543774Y-97329898D01*
X120621795Y-97518256D01*
X120735063Y-97687774D01*
X120796383Y-97749094D01*
X120758000Y-97942061D01*
X120758000Y-98145939D01*
X120797774Y-98345898D01*
X120875795Y-98534256D01*
X120989063Y-98703774D01*
X121133226Y-98847937D01*
X121302744Y-98961205D01*
X121491102Y-99039226D01*
X121691061Y-99079000D01*
X121894939Y-99079000D01*
X122094898Y-99039226D01*
X122283256Y-98961205D01*
X122316845Y-98938762D01*
X122331436Y-98948511D01*
X122519794Y-99026532D01*
X122719753Y-99066306D01*
X122923631Y-99066306D01*
X123123590Y-99026532D01*
X123311948Y-98948511D01*
X123481466Y-98835243D01*
X123625629Y-98691080D01*
X123738897Y-98521562D01*
X123816918Y-98333204D01*
X123834925Y-98242674D01*
X123909648Y-98167951D01*
X124020303Y-98157053D01*
X124140001Y-98120743D01*
X124250315Y-98061778D01*
X124347006Y-97982426D01*
X125222000Y-97107432D01*
X126096994Y-97982426D01*
X126193685Y-98061778D01*
X126303999Y-98120743D01*
X126423697Y-98157053D01*
X126548179Y-98169313D01*
X126672661Y-98157053D01*
X126792359Y-98120743D01*
X126902673Y-98061778D01*
X126999364Y-97982426D01*
X127239781Y-97742009D01*
X128087001Y-98589230D01*
X128087000Y-101223928D01*
X128047000Y-101223928D01*
X127922518Y-101236188D01*
X127802820Y-101272498D01*
X127692506Y-101331463D01*
X127595815Y-101410815D01*
X127516463Y-101507506D01*
X127457498Y-101617820D01*
X127421188Y-101737518D01*
X127408928Y-101862000D01*
X127408928Y-102862000D01*
X127421188Y-102986482D01*
X127457498Y-103106180D01*
X127516463Y-103216494D01*
X127595815Y-103313185D01*
X127692506Y-103392537D01*
X127802820Y-103451502D01*
X127922518Y-103487812D01*
X128047000Y-103500072D01*
X129174126Y-103500072D01*
X128910270Y-103763928D01*
X128047000Y-103763928D01*
X127922518Y-103776188D01*
X127802820Y-103812498D01*
X127692506Y-103871463D01*
X127595815Y-103950815D01*
X127516463Y-104047506D01*
X127457498Y-104157820D01*
X127421188Y-104277518D01*
X127408928Y-104402000D01*
X127408928Y-105402000D01*
X127421188Y-105526482D01*
X127457498Y-105646180D01*
X127516463Y-105756494D01*
X127595815Y-105853185D01*
X127692506Y-105932537D01*
X127802820Y-105991502D01*
X127922518Y-106027812D01*
X128047000Y-106040072D01*
X129647000Y-106040072D01*
X129771482Y-106027812D01*
X129891180Y-105991502D01*
X129999821Y-105933431D01*
X130006063Y-105942774D01*
X130150226Y-106086937D01*
X130319744Y-106200205D01*
X130508102Y-106278226D01*
X130708061Y-106318000D01*
X130911939Y-106318000D01*
X131111898Y-106278226D01*
X131300256Y-106200205D01*
X131469774Y-106086937D01*
X131489918Y-106066793D01*
X131513148Y-106183575D01*
X131621321Y-106444728D01*
X131761820Y-106655000D01*
X118770939Y-106655000D01*
X118884038Y-106502421D01*
X119004247Y-106248088D01*
X119044905Y-106114040D01*
X118922916Y-105892001D01*
X117780001Y-105892001D01*
X117780001Y-105912001D01*
X117526001Y-105912001D01*
X117526001Y-105892001D01*
X117506001Y-105892001D01*
X117506001Y-105638001D01*
X117526001Y-105638001D01*
X117526001Y-105618001D01*
X117780001Y-105618001D01*
X117780001Y-105638001D01*
X118922916Y-105638001D01*
X119044905Y-105415962D01*
X119004247Y-105281914D01*
X118884038Y-105027581D01*
X118716520Y-104801587D01*
X118508132Y-104612616D01*
X118322136Y-104501068D01*
X118332728Y-104496681D01*
X118567760Y-104339638D01*
X118767638Y-104139760D01*
X118924681Y-103904728D01*
X119032854Y-103643575D01*
X119088001Y-103366336D01*
X119088001Y-103083666D01*
X119032854Y-102806427D01*
X118924681Y-102545274D01*
X118767638Y-102310242D01*
X118589396Y-102132000D01*
X120408928Y-102132000D01*
X120408928Y-105132000D01*
X120421188Y-105256482D01*
X120457498Y-105376180D01*
X120516463Y-105486494D01*
X120595815Y-105583185D01*
X120692506Y-105662537D01*
X120802820Y-105721502D01*
X120922518Y-105757812D01*
X121047000Y-105770072D01*
X123547000Y-105770072D01*
X123671482Y-105757812D01*
X123791180Y-105721502D01*
X123901494Y-105662537D01*
X123998185Y-105583185D01*
X124077537Y-105486494D01*
X124136502Y-105376180D01*
X124172812Y-105256482D01*
X124185072Y-105132000D01*
X124185072Y-102132000D01*
X124172812Y-102007518D01*
X124136502Y-101887820D01*
X124077537Y-101777506D01*
X123998185Y-101680815D01*
X123901494Y-101601463D01*
X123791180Y-101542498D01*
X123671482Y-101506188D01*
X123547000Y-101493928D01*
X121047000Y-101493928D01*
X120922518Y-101506188D01*
X120802820Y-101542498D01*
X120692506Y-101601463D01*
X120595815Y-101680815D01*
X120516463Y-101777506D01*
X120457498Y-101887820D01*
X120421188Y-102007518D01*
X120408928Y-102132000D01*
X118589396Y-102132000D01*
X118567760Y-102110364D01*
X118335242Y-101955001D01*
X118567760Y-101799638D01*
X118767638Y-101599760D01*
X118924681Y-101364728D01*
X119032854Y-101103575D01*
X119088001Y-100826336D01*
X119088001Y-100543666D01*
X119032854Y-100266427D01*
X118924681Y-100005274D01*
X118767638Y-99770242D01*
X118567760Y-99570364D01*
X118335242Y-99415001D01*
X118567760Y-99259638D01*
X118767638Y-99059760D01*
X118924681Y-98824728D01*
X119032854Y-98563575D01*
X119088001Y-98286336D01*
X119088001Y-98003666D01*
X119032854Y-97726427D01*
X118924681Y-97465274D01*
X118767638Y-97230242D01*
X118567760Y-97030364D01*
X118335242Y-96875001D01*
X118567760Y-96719638D01*
X118767638Y-96519760D01*
X118910546Y-96305882D01*
X119033848Y-96239975D01*
X119149573Y-96145002D01*
X119173376Y-96115998D01*
X119700354Y-95589020D01*
X119738731Y-95781955D01*
G36*
X129896226Y-95164937D02*
G01*
X130065744Y-95278205D01*
X130254102Y-95356226D01*
X130454061Y-95396000D01*
X130558001Y-95396000D01*
X130558001Y-97784107D01*
X130552171Y-97777003D01*
X130535800Y-97757054D01*
X130535796Y-97757050D01*
X130512002Y-97728057D01*
X130483009Y-97704263D01*
X128880267Y-96101522D01*
X129120684Y-95861105D01*
X129184430Y-95783430D01*
X129262105Y-95719684D01*
X129686369Y-95295420D01*
X129750115Y-95217744D01*
X129827791Y-95153998D01*
X129856539Y-95125250D01*
X129896226Y-95164937D01*
G37*
X129896226Y-95164937D02*
X130065744Y-95278205D01*
X130254102Y-95356226D01*
X130454061Y-95396000D01*
X130558001Y-95396000D01*
X130558001Y-97784107D01*
X130552171Y-97777003D01*
X130535800Y-97757054D01*
X130535796Y-97757050D01*
X130512002Y-97728057D01*
X130483009Y-97704263D01*
X128880267Y-96101522D01*
X129120684Y-95861105D01*
X129184430Y-95783430D01*
X129262105Y-95719684D01*
X129686369Y-95295420D01*
X129750115Y-95217744D01*
X129827791Y-95153998D01*
X129856539Y-95125250D01*
X129896226Y-95164937D01*
G36*
X127411420Y-91910222D02*
G01*
X127367078Y-91910222D01*
X127167119Y-91949996D01*
X127132571Y-91964306D01*
X127129998Y-91962195D01*
X127125000Y-91957197D01*
X127125000Y-91623802D01*
X127411420Y-91910222D01*
G37*
X127411420Y-91910222D02*
X127367078Y-91910222D01*
X127167119Y-91949996D01*
X127132571Y-91964306D01*
X127129998Y-91962195D01*
X127125000Y-91957197D01*
X127125000Y-91623802D01*
X127411420Y-91910222D01*
G36*
X120110815Y-77057815D02*
G01*
X120031463Y-77154506D01*
X119972498Y-77264820D01*
X119936188Y-77384518D01*
X119923928Y-77509000D01*
X119923928Y-79209000D01*
X119936188Y-79333482D01*
X119972498Y-79453180D01*
X120031463Y-79563494D01*
X120110815Y-79660185D01*
X120207506Y-79739537D01*
X120317820Y-79798502D01*
X120437518Y-79834812D01*
X120562000Y-79847072D01*
X122262000Y-79847072D01*
X122386482Y-79834812D01*
X122506180Y-79798502D01*
X122616494Y-79739537D01*
X122713185Y-79660185D01*
X122792537Y-79563494D01*
X122851502Y-79453180D01*
X122887812Y-79333482D01*
X122900072Y-79209000D01*
X122900072Y-77509000D01*
X122887812Y-77384518D01*
X122851502Y-77264820D01*
X122792537Y-77154506D01*
X122713185Y-77057815D01*
X122626896Y-76987000D01*
X125923810Y-76987000D01*
X125788589Y-77043010D01*
X125545368Y-77205525D01*
X125338525Y-77412368D01*
X125176010Y-77655589D01*
X125064068Y-77925842D01*
X125007000Y-78212740D01*
X125007000Y-78505260D01*
X125064068Y-78792158D01*
X125176010Y-79062411D01*
X125338525Y-79305632D01*
X125545368Y-79512475D01*
X125788589Y-79674990D01*
X126058842Y-79786932D01*
X126343806Y-79843615D01*
X126333815Y-79851815D01*
X126254463Y-79948506D01*
X126195498Y-80058820D01*
X126159188Y-80178518D01*
X126146928Y-80303000D01*
X126146928Y-82003000D01*
X126159188Y-82127482D01*
X126195498Y-82247180D01*
X126254463Y-82357494D01*
X126333815Y-82454185D01*
X126430506Y-82533537D01*
X126540820Y-82592502D01*
X126660518Y-82628812D01*
X126785000Y-82641072D01*
X128485000Y-82641072D01*
X128609482Y-82628812D01*
X128729180Y-82592502D01*
X128839494Y-82533537D01*
X128936185Y-82454185D01*
X129015537Y-82357494D01*
X129074502Y-82247180D01*
X129098966Y-82166534D01*
X129174731Y-82250588D01*
X129408080Y-82424641D01*
X129583842Y-82508358D01*
X127722199Y-84370002D01*
X127660061Y-84370002D01*
X127460102Y-84409776D01*
X127271744Y-84487797D01*
X127102226Y-84601065D01*
X126958063Y-84745228D01*
X126844795Y-84914746D01*
X126766774Y-85103104D01*
X126727000Y-85303063D01*
X126727000Y-85501431D01*
X126672660Y-85484947D01*
X126548179Y-85472687D01*
X126423698Y-85484947D01*
X126304000Y-85521257D01*
X126193685Y-85580221D01*
X126096994Y-85659574D01*
X125779731Y-85981181D01*
X125779731Y-86205688D01*
X126230991Y-86656948D01*
X126051386Y-86836553D01*
X125600126Y-86385293D01*
X125375619Y-86385293D01*
X125223142Y-86535710D01*
X124347006Y-85659574D01*
X124250315Y-85580222D01*
X124140001Y-85521257D01*
X124020303Y-85484947D01*
X123895821Y-85472687D01*
X123771339Y-85484947D01*
X123651641Y-85521257D01*
X123541327Y-85580222D01*
X123444636Y-85659574D01*
X123020372Y-86083838D01*
X122956623Y-86161516D01*
X122878951Y-86225260D01*
X122454687Y-86649524D01*
X122390941Y-86727199D01*
X122313266Y-86790945D01*
X121889002Y-87215209D01*
X121825256Y-87292885D01*
X121747580Y-87356631D01*
X121323316Y-87780895D01*
X121259572Y-87858568D01*
X121181895Y-87922316D01*
X121173991Y-87934564D01*
X121173991Y-88024189D01*
X121148689Y-88107598D01*
X121136429Y-88232080D01*
X121143971Y-88308657D01*
X121067394Y-88301115D01*
X120942912Y-88313375D01*
X120859506Y-88338676D01*
X120769879Y-88338676D01*
X120757631Y-88346580D01*
X120693882Y-88424258D01*
X120616209Y-88488002D01*
X120191945Y-88912266D01*
X120128199Y-88989941D01*
X120050524Y-89053687D01*
X119626260Y-89477951D01*
X119562516Y-89555623D01*
X119484838Y-89619372D01*
X119060574Y-90043636D01*
X119024867Y-90087145D01*
X118924681Y-89845274D01*
X118767638Y-89610242D01*
X118567760Y-89410364D01*
X118335242Y-89255001D01*
X118567760Y-89099638D01*
X118767638Y-88899760D01*
X118924681Y-88664728D01*
X119032854Y-88403575D01*
X119088001Y-88126336D01*
X119088001Y-87843666D01*
X119032854Y-87566427D01*
X118924681Y-87305274D01*
X118767638Y-87070242D01*
X118567760Y-86870364D01*
X118335242Y-86715001D01*
X118567760Y-86559638D01*
X118767638Y-86359760D01*
X118924681Y-86124728D01*
X119032854Y-85863575D01*
X119088001Y-85586336D01*
X119088001Y-85303666D01*
X119032854Y-85026427D01*
X118924681Y-84765274D01*
X118767638Y-84530242D01*
X118567760Y-84330364D01*
X118335242Y-84175001D01*
X118567760Y-84019638D01*
X118767638Y-83819760D01*
X118924681Y-83584728D01*
X119032854Y-83323575D01*
X119088001Y-83046336D01*
X119088001Y-82763666D01*
X119032854Y-82486427D01*
X118924681Y-82225274D01*
X118767638Y-81990242D01*
X118567760Y-81790364D01*
X118335242Y-81635001D01*
X118567760Y-81479638D01*
X118767638Y-81279760D01*
X118924681Y-81044728D01*
X119032854Y-80783575D01*
X119088001Y-80506336D01*
X119088001Y-80223666D01*
X119032854Y-79946427D01*
X118924681Y-79685274D01*
X118767638Y-79450242D01*
X118569040Y-79251644D01*
X118577483Y-79250813D01*
X118697181Y-79214503D01*
X118807495Y-79155538D01*
X118904186Y-79076186D01*
X118983538Y-78979495D01*
X119042503Y-78869181D01*
X119078813Y-78749483D01*
X119091073Y-78625001D01*
X119091073Y-77025001D01*
X119087330Y-76987000D01*
X120197104Y-76987000D01*
X120110815Y-77057815D01*
G37*
X120110815Y-77057815D02*
X120031463Y-77154506D01*
X119972498Y-77264820D01*
X119936188Y-77384518D01*
X119923928Y-77509000D01*
X119923928Y-79209000D01*
X119936188Y-79333482D01*
X119972498Y-79453180D01*
X120031463Y-79563494D01*
X120110815Y-79660185D01*
X120207506Y-79739537D01*
X120317820Y-79798502D01*
X120437518Y-79834812D01*
X120562000Y-79847072D01*
X122262000Y-79847072D01*
X122386482Y-79834812D01*
X122506180Y-79798502D01*
X122616494Y-79739537D01*
X122713185Y-79660185D01*
X122792537Y-79563494D01*
X122851502Y-79453180D01*
X122887812Y-79333482D01*
X122900072Y-79209000D01*
X122900072Y-77509000D01*
X122887812Y-77384518D01*
X122851502Y-77264820D01*
X122792537Y-77154506D01*
X122713185Y-77057815D01*
X122626896Y-76987000D01*
X125923810Y-76987000D01*
X125788589Y-77043010D01*
X125545368Y-77205525D01*
X125338525Y-77412368D01*
X125176010Y-77655589D01*
X125064068Y-77925842D01*
X125007000Y-78212740D01*
X125007000Y-78505260D01*
X125064068Y-78792158D01*
X125176010Y-79062411D01*
X125338525Y-79305632D01*
X125545368Y-79512475D01*
X125788589Y-79674990D01*
X126058842Y-79786932D01*
X126343806Y-79843615D01*
X126333815Y-79851815D01*
X126254463Y-79948506D01*
X126195498Y-80058820D01*
X126159188Y-80178518D01*
X126146928Y-80303000D01*
X126146928Y-82003000D01*
X126159188Y-82127482D01*
X126195498Y-82247180D01*
X126254463Y-82357494D01*
X126333815Y-82454185D01*
X126430506Y-82533537D01*
X126540820Y-82592502D01*
X126660518Y-82628812D01*
X126785000Y-82641072D01*
X128485000Y-82641072D01*
X128609482Y-82628812D01*
X128729180Y-82592502D01*
X128839494Y-82533537D01*
X128936185Y-82454185D01*
X129015537Y-82357494D01*
X129074502Y-82247180D01*
X129098966Y-82166534D01*
X129174731Y-82250588D01*
X129408080Y-82424641D01*
X129583842Y-82508358D01*
X127722199Y-84370002D01*
X127660061Y-84370002D01*
X127460102Y-84409776D01*
X127271744Y-84487797D01*
X127102226Y-84601065D01*
X126958063Y-84745228D01*
X126844795Y-84914746D01*
X126766774Y-85103104D01*
X126727000Y-85303063D01*
X126727000Y-85501431D01*
X126672660Y-85484947D01*
X126548179Y-85472687D01*
X126423698Y-85484947D01*
X126304000Y-85521257D01*
X126193685Y-85580221D01*
X126096994Y-85659574D01*
X125779731Y-85981181D01*
X125779731Y-86205688D01*
X126230991Y-86656948D01*
X126051386Y-86836553D01*
X125600126Y-86385293D01*
X125375619Y-86385293D01*
X125223142Y-86535710D01*
X124347006Y-85659574D01*
X124250315Y-85580222D01*
X124140001Y-85521257D01*
X124020303Y-85484947D01*
X123895821Y-85472687D01*
X123771339Y-85484947D01*
X123651641Y-85521257D01*
X123541327Y-85580222D01*
X123444636Y-85659574D01*
X123020372Y-86083838D01*
X122956623Y-86161516D01*
X122878951Y-86225260D01*
X122454687Y-86649524D01*
X122390941Y-86727199D01*
X122313266Y-86790945D01*
X121889002Y-87215209D01*
X121825256Y-87292885D01*
X121747580Y-87356631D01*
X121323316Y-87780895D01*
X121259572Y-87858568D01*
X121181895Y-87922316D01*
X121173991Y-87934564D01*
X121173991Y-88024189D01*
X121148689Y-88107598D01*
X121136429Y-88232080D01*
X121143971Y-88308657D01*
X121067394Y-88301115D01*
X120942912Y-88313375D01*
X120859506Y-88338676D01*
X120769879Y-88338676D01*
X120757631Y-88346580D01*
X120693882Y-88424258D01*
X120616209Y-88488002D01*
X120191945Y-88912266D01*
X120128199Y-88989941D01*
X120050524Y-89053687D01*
X119626260Y-89477951D01*
X119562516Y-89555623D01*
X119484838Y-89619372D01*
X119060574Y-90043636D01*
X119024867Y-90087145D01*
X118924681Y-89845274D01*
X118767638Y-89610242D01*
X118567760Y-89410364D01*
X118335242Y-89255001D01*
X118567760Y-89099638D01*
X118767638Y-88899760D01*
X118924681Y-88664728D01*
X119032854Y-88403575D01*
X119088001Y-88126336D01*
X119088001Y-87843666D01*
X119032854Y-87566427D01*
X118924681Y-87305274D01*
X118767638Y-87070242D01*
X118567760Y-86870364D01*
X118335242Y-86715001D01*
X118567760Y-86559638D01*
X118767638Y-86359760D01*
X118924681Y-86124728D01*
X119032854Y-85863575D01*
X119088001Y-85586336D01*
X119088001Y-85303666D01*
X119032854Y-85026427D01*
X118924681Y-84765274D01*
X118767638Y-84530242D01*
X118567760Y-84330364D01*
X118335242Y-84175001D01*
X118567760Y-84019638D01*
X118767638Y-83819760D01*
X118924681Y-83584728D01*
X119032854Y-83323575D01*
X119088001Y-83046336D01*
X119088001Y-82763666D01*
X119032854Y-82486427D01*
X118924681Y-82225274D01*
X118767638Y-81990242D01*
X118567760Y-81790364D01*
X118335242Y-81635001D01*
X118567760Y-81479638D01*
X118767638Y-81279760D01*
X118924681Y-81044728D01*
X119032854Y-80783575D01*
X119088001Y-80506336D01*
X119088001Y-80223666D01*
X119032854Y-79946427D01*
X118924681Y-79685274D01*
X118767638Y-79450242D01*
X118569040Y-79251644D01*
X118577483Y-79250813D01*
X118697181Y-79214503D01*
X118807495Y-79155538D01*
X118904186Y-79076186D01*
X118983538Y-78979495D01*
X119042503Y-78869181D01*
X119078813Y-78749483D01*
X119091073Y-78625001D01*
X119091073Y-77025001D01*
X119087330Y-76987000D01*
X120197104Y-76987000D01*
X120110815Y-77057815D01*
G36*
X131621321Y-77145274D02*
G01*
X131513148Y-77406427D01*
X131458001Y-77683666D01*
X131458001Y-77966336D01*
X131494313Y-78148887D01*
X131060998Y-78582203D01*
X131032000Y-78606001D01*
X131008202Y-78634999D01*
X131008201Y-78635000D01*
X130937026Y-78721726D01*
X130866454Y-78853756D01*
X130822998Y-78997017D01*
X130808324Y-79146002D01*
X130812001Y-79183334D01*
X130812001Y-79819477D01*
X130679099Y-79756175D01*
X130531890Y-79711524D01*
X130302000Y-79832845D01*
X130302000Y-81026000D01*
X130322000Y-81026000D01*
X130322000Y-81280000D01*
X130302000Y-81280000D01*
X130302000Y-81300000D01*
X130048000Y-81300000D01*
X130048000Y-81280000D01*
X130028000Y-81280000D01*
X130028000Y-81026000D01*
X130048000Y-81026000D01*
X130048000Y-79832845D01*
X129818110Y-79711524D01*
X129670901Y-79756175D01*
X129408080Y-79881359D01*
X129174731Y-80055412D01*
X129098966Y-80139466D01*
X129074502Y-80058820D01*
X129015537Y-79948506D01*
X128936185Y-79851815D01*
X128926662Y-79844000D01*
X129178260Y-79844000D01*
X129465158Y-79786932D01*
X129735411Y-79674990D01*
X129978632Y-79512475D01*
X130185475Y-79305632D01*
X130347990Y-79062411D01*
X130459932Y-78792158D01*
X130517000Y-78505260D01*
X130517000Y-78212740D01*
X130459932Y-77925842D01*
X130347990Y-77655589D01*
X130185475Y-77412368D01*
X129978632Y-77205525D01*
X129735411Y-77043010D01*
X129600190Y-76987000D01*
X131727076Y-76987000D01*
X131621321Y-77145274D01*
G37*
X131621321Y-77145274D02*
X131513148Y-77406427D01*
X131458001Y-77683666D01*
X131458001Y-77966336D01*
X131494313Y-78148887D01*
X131060998Y-78582203D01*
X131032000Y-78606001D01*
X131008202Y-78634999D01*
X131008201Y-78635000D01*
X130937026Y-78721726D01*
X130866454Y-78853756D01*
X130822998Y-78997017D01*
X130808324Y-79146002D01*
X130812001Y-79183334D01*
X130812001Y-79819477D01*
X130679099Y-79756175D01*
X130531890Y-79711524D01*
X130302000Y-79832845D01*
X130302000Y-81026000D01*
X130322000Y-81026000D01*
X130322000Y-81280000D01*
X130302000Y-81280000D01*
X130302000Y-81300000D01*
X130048000Y-81300000D01*
X130048000Y-81280000D01*
X130028000Y-81280000D01*
X130028000Y-81026000D01*
X130048000Y-81026000D01*
X130048000Y-79832845D01*
X129818110Y-79711524D01*
X129670901Y-79756175D01*
X129408080Y-79881359D01*
X129174731Y-80055412D01*
X129098966Y-80139466D01*
X129074502Y-80058820D01*
X129015537Y-79948506D01*
X128936185Y-79851815D01*
X128926662Y-79844000D01*
X129178260Y-79844000D01*
X129465158Y-79786932D01*
X129735411Y-79674990D01*
X129978632Y-79512475D01*
X130185475Y-79305632D01*
X130347990Y-79062411D01*
X130459932Y-78792158D01*
X130517000Y-78505260D01*
X130517000Y-78212740D01*
X130459932Y-77925842D01*
X130347990Y-77655589D01*
X130185475Y-77412368D01*
X129978632Y-77205525D01*
X129735411Y-77043010D01*
X129600190Y-76987000D01*
X131727076Y-76987000D01*
X131621321Y-77145274D01*
%TD*%
M02*
