%TF.GenerationSoftware,KiCad,Pcbnew,(5.1.6)-1*%
%TF.CreationDate,2021-07-23T13:19:56-04:00*%
%TF.ProjectId,RTC-12887-switch,5254432d-3132-4383-9837-2d7377697463,rev?*%
%TF.SameCoordinates,Original*%
%TF.FileFunction,Legend,Bot*%
%TF.FilePolarity,Positive*%
%FSLAX46Y46*%
G04 Gerber Fmt 4.6, Leading zero omitted, Abs format (unit mm)*
G04 Created by KiCad (PCBNEW (5.1.6)-1) date 2021-07-23 13:19:56*
%MOMM*%
%LPD*%
G01*
G04 APERTURE LIST*
%ADD10C,0.150000*%
%ADD11C,0.120000*%
%ADD12C,0.200000*%
%ADD13C,0.400000*%
%ADD14C,0.254000*%
G04 APERTURE END LIST*
D10*
X131055333Y-83478714D02*
X130864857Y-84145380D01*
X130674380Y-83669190D01*
X130483904Y-84145380D01*
X130293428Y-83478714D01*
X129912476Y-84145380D02*
X129912476Y-83478714D01*
X129912476Y-83145380D02*
X129960095Y-83193000D01*
X129912476Y-83240619D01*
X129864857Y-83193000D01*
X129912476Y-83145380D01*
X129912476Y-83240619D01*
X129436285Y-84145380D02*
X129436285Y-83478714D01*
X129436285Y-83669190D02*
X129388666Y-83573952D01*
X129341047Y-83526333D01*
X129245809Y-83478714D01*
X129150571Y-83478714D01*
X128436285Y-84097761D02*
X128531523Y-84145380D01*
X128722000Y-84145380D01*
X128817238Y-84097761D01*
X128864857Y-84002523D01*
X128864857Y-83621571D01*
X128817238Y-83526333D01*
X128722000Y-83478714D01*
X128531523Y-83478714D01*
X128436285Y-83526333D01*
X128388666Y-83621571D01*
X128388666Y-83716809D01*
X128864857Y-83812047D01*
X128102952Y-83478714D02*
X127722000Y-83478714D01*
X127960095Y-83145380D02*
X127960095Y-84002523D01*
X127912476Y-84097761D01*
X127817238Y-84145380D01*
X127722000Y-84145380D01*
X126960095Y-84145380D02*
X126960095Y-83621571D01*
X127007714Y-83526333D01*
X127102952Y-83478714D01*
X127293428Y-83478714D01*
X127388666Y-83526333D01*
X126960095Y-84097761D02*
X127055333Y-84145380D01*
X127293428Y-84145380D01*
X127388666Y-84097761D01*
X127436285Y-84002523D01*
X127436285Y-83907285D01*
X127388666Y-83812047D01*
X127293428Y-83764428D01*
X127055333Y-83764428D01*
X126960095Y-83716809D01*
X126483904Y-83478714D02*
X126483904Y-84478714D01*
X126483904Y-83526333D02*
X126388666Y-83478714D01*
X126198190Y-83478714D01*
X126102952Y-83526333D01*
X126055333Y-83573952D01*
X126007714Y-83669190D01*
X126007714Y-83954904D01*
X126055333Y-84050142D01*
X126102952Y-84097761D01*
X126198190Y-84145380D01*
X126388666Y-84145380D01*
X126483904Y-84097761D01*
X124817238Y-83764428D02*
X124055333Y-83764428D01*
X122864857Y-83240619D02*
X122817238Y-83193000D01*
X122722000Y-83145380D01*
X122483904Y-83145380D01*
X122388666Y-83193000D01*
X122341047Y-83240619D01*
X122293428Y-83335857D01*
X122293428Y-83431095D01*
X122341047Y-83573952D01*
X122912476Y-84145380D01*
X122293428Y-84145380D01*
X121674380Y-83145380D02*
X121579142Y-83145380D01*
X121483904Y-83193000D01*
X121436285Y-83240619D01*
X121388666Y-83335857D01*
X121341047Y-83526333D01*
X121341047Y-83764428D01*
X121388666Y-83954904D01*
X121436285Y-84050142D01*
X121483904Y-84097761D01*
X121579142Y-84145380D01*
X121674380Y-84145380D01*
X121769619Y-84097761D01*
X121817238Y-84050142D01*
X121864857Y-83954904D01*
X121912476Y-83764428D01*
X121912476Y-83526333D01*
X121864857Y-83335857D01*
X121817238Y-83240619D01*
X121769619Y-83193000D01*
X121674380Y-83145380D01*
X120960095Y-83240619D02*
X120912476Y-83193000D01*
X120817238Y-83145380D01*
X120579142Y-83145380D01*
X120483904Y-83193000D01*
X120436285Y-83240619D01*
X120388666Y-83335857D01*
X120388666Y-83431095D01*
X120436285Y-83573952D01*
X121007714Y-84145380D01*
X120388666Y-84145380D01*
X119436285Y-84145380D02*
X120007714Y-84145380D01*
X119722000Y-84145380D02*
X119722000Y-83145380D01*
X119817238Y-83288238D01*
X119912476Y-83383476D01*
X120007714Y-83431095D01*
X121824571Y-106084714D02*
X121586476Y-106751380D01*
X121348380Y-106084714D01*
X120776952Y-105751380D02*
X120681714Y-105751380D01*
X120586476Y-105799000D01*
X120538857Y-105846619D01*
X120491238Y-105941857D01*
X120443619Y-106132333D01*
X120443619Y-106370428D01*
X120491238Y-106560904D01*
X120538857Y-106656142D01*
X120586476Y-106703761D01*
X120681714Y-106751380D01*
X120776952Y-106751380D01*
X120872190Y-106703761D01*
X120919809Y-106656142D01*
X120967428Y-106560904D01*
X121015047Y-106370428D01*
X121015047Y-106132333D01*
X120967428Y-105941857D01*
X120919809Y-105846619D01*
X120872190Y-105799000D01*
X120776952Y-105751380D01*
X120015047Y-106656142D02*
X119967428Y-106703761D01*
X120015047Y-106751380D01*
X120062666Y-106703761D01*
X120015047Y-106656142D01*
X120015047Y-106751380D01*
X119015047Y-106751380D02*
X119586476Y-106751380D01*
X119300761Y-106751380D02*
X119300761Y-105751380D01*
X119396000Y-105894238D01*
X119491238Y-105989476D01*
X119586476Y-106037095D01*
X130102952Y-99703380D02*
X130102952Y-98703380D01*
X129864857Y-98703380D01*
X129722000Y-98751000D01*
X129626761Y-98846238D01*
X129579142Y-98941476D01*
X129531523Y-99131952D01*
X129531523Y-99274809D01*
X129579142Y-99465285D01*
X129626761Y-99560523D01*
X129722000Y-99655761D01*
X129864857Y-99703380D01*
X130102952Y-99703380D01*
X129150571Y-99655761D02*
X129007714Y-99703380D01*
X128769619Y-99703380D01*
X128674380Y-99655761D01*
X128626761Y-99608142D01*
X128579142Y-99512904D01*
X128579142Y-99417666D01*
X128626761Y-99322428D01*
X128674380Y-99274809D01*
X128769619Y-99227190D01*
X128960095Y-99179571D01*
X129055333Y-99131952D01*
X129102952Y-99084333D01*
X129150571Y-98989095D01*
X129150571Y-98893857D01*
X129102952Y-98798619D01*
X129055333Y-98751000D01*
X128960095Y-98703380D01*
X128722000Y-98703380D01*
X128579142Y-98751000D01*
X127626761Y-99703380D02*
X128198190Y-99703380D01*
X127912476Y-99703380D02*
X127912476Y-98703380D01*
X128007714Y-98846238D01*
X128102952Y-98941476D01*
X128198190Y-98989095D01*
X127245809Y-98798619D02*
X127198190Y-98751000D01*
X127102952Y-98703380D01*
X126864857Y-98703380D01*
X126769619Y-98751000D01*
X126722000Y-98798619D01*
X126674380Y-98893857D01*
X126674380Y-98989095D01*
X126722000Y-99131952D01*
X127293428Y-99703380D01*
X126674380Y-99703380D01*
X126102952Y-99131952D02*
X126198190Y-99084333D01*
X126245809Y-99036714D01*
X126293428Y-98941476D01*
X126293428Y-98893857D01*
X126245809Y-98798619D01*
X126198190Y-98751000D01*
X126102952Y-98703380D01*
X125912476Y-98703380D01*
X125817238Y-98751000D01*
X125769619Y-98798619D01*
X125722000Y-98893857D01*
X125722000Y-98941476D01*
X125769619Y-99036714D01*
X125817238Y-99084333D01*
X125912476Y-99131952D01*
X126102952Y-99131952D01*
X126198190Y-99179571D01*
X126245809Y-99227190D01*
X126293428Y-99322428D01*
X126293428Y-99512904D01*
X126245809Y-99608142D01*
X126198190Y-99655761D01*
X126102952Y-99703380D01*
X125912476Y-99703380D01*
X125817238Y-99655761D01*
X125769619Y-99608142D01*
X125722000Y-99512904D01*
X125722000Y-99322428D01*
X125769619Y-99227190D01*
X125817238Y-99179571D01*
X125912476Y-99131952D01*
X125150571Y-99131952D02*
X125245809Y-99084333D01*
X125293428Y-99036714D01*
X125341047Y-98941476D01*
X125341047Y-98893857D01*
X125293428Y-98798619D01*
X125245809Y-98751000D01*
X125150571Y-98703380D01*
X124960095Y-98703380D01*
X124864857Y-98751000D01*
X124817238Y-98798619D01*
X124769619Y-98893857D01*
X124769619Y-98941476D01*
X124817238Y-99036714D01*
X124864857Y-99084333D01*
X124960095Y-99131952D01*
X125150571Y-99131952D01*
X125245809Y-99179571D01*
X125293428Y-99227190D01*
X125341047Y-99322428D01*
X125341047Y-99512904D01*
X125293428Y-99608142D01*
X125245809Y-99655761D01*
X125150571Y-99703380D01*
X124960095Y-99703380D01*
X124864857Y-99655761D01*
X124817238Y-99608142D01*
X124769619Y-99512904D01*
X124769619Y-99322428D01*
X124817238Y-99227190D01*
X124864857Y-99179571D01*
X124960095Y-99131952D01*
X124436285Y-98703380D02*
X123769619Y-98703380D01*
X124198190Y-99703380D01*
X122055333Y-99703380D02*
X122388666Y-99227190D01*
X122626761Y-99703380D02*
X122626761Y-98703380D01*
X122245809Y-98703380D01*
X122150571Y-98751000D01*
X122102952Y-98798619D01*
X122055333Y-98893857D01*
X122055333Y-99036714D01*
X122102952Y-99131952D01*
X122150571Y-99179571D01*
X122245809Y-99227190D01*
X122626761Y-99227190D01*
X121769619Y-98703380D02*
X121198190Y-98703380D01*
X121483904Y-99703380D02*
X121483904Y-98703380D01*
X120293428Y-99608142D02*
X120341047Y-99655761D01*
X120483904Y-99703380D01*
X120579142Y-99703380D01*
X120722000Y-99655761D01*
X120817238Y-99560523D01*
X120864857Y-99465285D01*
X120912476Y-99274809D01*
X120912476Y-99131952D01*
X120864857Y-98941476D01*
X120817238Y-98846238D01*
X120722000Y-98751000D01*
X120579142Y-98703380D01*
X120483904Y-98703380D01*
X120341047Y-98751000D01*
X120293428Y-98798619D01*
X129198190Y-101353380D02*
X129531523Y-100877190D01*
X129769619Y-101353380D02*
X129769619Y-100353380D01*
X129388666Y-100353380D01*
X129293428Y-100401000D01*
X129245809Y-100448619D01*
X129198190Y-100543857D01*
X129198190Y-100686714D01*
X129245809Y-100781952D01*
X129293428Y-100829571D01*
X129388666Y-100877190D01*
X129769619Y-100877190D01*
X128388666Y-101305761D02*
X128483904Y-101353380D01*
X128674380Y-101353380D01*
X128769619Y-101305761D01*
X128817238Y-101210523D01*
X128817238Y-100829571D01*
X128769619Y-100734333D01*
X128674380Y-100686714D01*
X128483904Y-100686714D01*
X128388666Y-100734333D01*
X128341047Y-100829571D01*
X128341047Y-100924809D01*
X128817238Y-101020047D01*
X127912476Y-100686714D02*
X127912476Y-101686714D01*
X127912476Y-100734333D02*
X127817238Y-100686714D01*
X127626761Y-100686714D01*
X127531523Y-100734333D01*
X127483904Y-100781952D01*
X127436285Y-100877190D01*
X127436285Y-101162904D01*
X127483904Y-101258142D01*
X127531523Y-101305761D01*
X127626761Y-101353380D01*
X127817238Y-101353380D01*
X127912476Y-101305761D01*
X126864857Y-101353380D02*
X126960095Y-101305761D01*
X127007714Y-101210523D01*
X127007714Y-100353380D01*
X126055333Y-101353380D02*
X126055333Y-100829571D01*
X126102952Y-100734333D01*
X126198190Y-100686714D01*
X126388666Y-100686714D01*
X126483904Y-100734333D01*
X126055333Y-101305761D02*
X126150571Y-101353380D01*
X126388666Y-101353380D01*
X126483904Y-101305761D01*
X126531523Y-101210523D01*
X126531523Y-101115285D01*
X126483904Y-101020047D01*
X126388666Y-100972428D01*
X126150571Y-100972428D01*
X126055333Y-100924809D01*
X125150571Y-101305761D02*
X125245809Y-101353380D01*
X125436285Y-101353380D01*
X125531523Y-101305761D01*
X125579142Y-101258142D01*
X125626761Y-101162904D01*
X125626761Y-100877190D01*
X125579142Y-100781952D01*
X125531523Y-100734333D01*
X125436285Y-100686714D01*
X125245809Y-100686714D01*
X125150571Y-100734333D01*
X124341047Y-101305761D02*
X124436285Y-101353380D01*
X124626761Y-101353380D01*
X124722000Y-101305761D01*
X124769619Y-101210523D01*
X124769619Y-100829571D01*
X124722000Y-100734333D01*
X124626761Y-100686714D01*
X124436285Y-100686714D01*
X124341047Y-100734333D01*
X124293428Y-100829571D01*
X124293428Y-100924809D01*
X124769619Y-101020047D01*
X123864857Y-101353380D02*
X123864857Y-100686714D01*
X123864857Y-100781952D02*
X123817238Y-100734333D01*
X123722000Y-100686714D01*
X123579142Y-100686714D01*
X123483904Y-100734333D01*
X123436285Y-100829571D01*
X123436285Y-101353380D01*
X123436285Y-100829571D02*
X123388666Y-100734333D01*
X123293428Y-100686714D01*
X123150571Y-100686714D01*
X123055333Y-100734333D01*
X123007714Y-100829571D01*
X123007714Y-101353380D01*
X122150571Y-101305761D02*
X122245809Y-101353380D01*
X122436285Y-101353380D01*
X122531523Y-101305761D01*
X122579142Y-101210523D01*
X122579142Y-100829571D01*
X122531523Y-100734333D01*
X122436285Y-100686714D01*
X122245809Y-100686714D01*
X122150571Y-100734333D01*
X122102952Y-100829571D01*
X122102952Y-100924809D01*
X122579142Y-101020047D01*
X121674380Y-100686714D02*
X121674380Y-101353380D01*
X121674380Y-100781952D02*
X121626761Y-100734333D01*
X121531523Y-100686714D01*
X121388666Y-100686714D01*
X121293428Y-100734333D01*
X121245809Y-100829571D01*
X121245809Y-101353380D01*
X120912476Y-100686714D02*
X120531523Y-100686714D01*
X120769619Y-100353380D02*
X120769619Y-101210523D01*
X120722000Y-101305761D01*
X120626761Y-101353380D01*
X120531523Y-101353380D01*
D11*
%TO.C,Y1*%
X127847000Y-102362000D02*
X127847000Y-102362000D01*
X127447000Y-103132000D02*
X127847000Y-102362000D01*
X127847000Y-104902000D02*
X127847000Y-104902000D01*
X127447000Y-104132000D02*
X127847000Y-104902000D01*
X127447000Y-101932000D02*
X127447000Y-105332000D01*
X120847000Y-101932000D02*
X127447000Y-101932000D01*
X120847000Y-105332000D02*
X120847000Y-101932000D01*
X127447000Y-105332000D02*
X120847000Y-105332000D01*
D12*
%TO.C,IC1*%
X125222000Y-96275773D02*
X129676773Y-91821000D01*
X129676773Y-91821000D02*
X125222000Y-87366227D01*
X125222000Y-87366227D02*
X120767227Y-91821000D01*
X120767227Y-91821000D02*
X125222000Y-96275773D01*
D13*
X125015415Y-97884441D02*
G75*
G03*
X125015415Y-97884441I-200001J0D01*
G01*
%TO.C,Y1*%
D10*
X125394190Y-103155809D02*
X125870380Y-103155809D01*
X124870380Y-102822476D02*
X125394190Y-103155809D01*
X124870380Y-103489142D01*
X125870380Y-104346285D02*
X125870380Y-103774857D01*
X125870380Y-104060571D02*
X124870380Y-104060571D01*
X125013238Y-103965333D01*
X125108476Y-103870095D01*
X125156095Y-103774857D01*
%TO.C,IC1*%
D14*
X126504893Y-91350605D02*
X125606868Y-90452580D01*
X125478578Y-92205868D02*
X125564104Y-92205868D01*
X125735157Y-92120341D01*
X125820683Y-92034815D01*
X125906209Y-91863763D01*
X125906209Y-91692710D01*
X125863446Y-91564421D01*
X125735157Y-91350605D01*
X125606868Y-91222316D01*
X125393052Y-91094026D01*
X125264763Y-91051263D01*
X125093710Y-91051263D01*
X124922658Y-91136790D01*
X124837131Y-91222316D01*
X124751605Y-91393368D01*
X124751605Y-91478895D01*
X124708842Y-93146656D02*
X125222000Y-92633499D01*
X124965421Y-92890078D02*
X124067395Y-91992052D01*
X124281211Y-92034815D01*
X124452263Y-92034815D01*
X124580553Y-91992052D01*
%TD*%
M02*
