%TF.GenerationSoftware,KiCad,Pcbnew,(5.1.6)-1*%
%TF.CreationDate,2021-07-23T13:19:56-04:00*%
%TF.ProjectId,RTC-12887-switch,5254432d-3132-4383-9837-2d7377697463,rev?*%
%TF.SameCoordinates,Original*%
%TF.FileFunction,Paste,Bot*%
%TF.FilePolarity,Positive*%
%FSLAX46Y46*%
G04 Gerber Fmt 4.6, Leading zero omitted, Abs format (unit mm)*
G04 Created by KiCad (PCBNEW (5.1.6)-1) date 2021-07-23 13:19:56*
%MOMM*%
%LPD*%
G01*
G04 APERTURE LIST*
%ADD10R,1.600000X1.000000*%
%ADD11R,2.500000X3.000000*%
%ADD12C,0.100000*%
G04 APERTURE END LIST*
D10*
%TO.C,Y1*%
X128847000Y-104902000D03*
X128847000Y-102362000D03*
D11*
X122297000Y-103632000D03*
%TD*%
D12*
%TO.C,IC1*%
G36*
X123471557Y-97106977D02*
G01*
X124514539Y-96063995D01*
X124938803Y-96488259D01*
X123895821Y-97531241D01*
X123471557Y-97106977D01*
G37*
G36*
X122905872Y-96541291D02*
G01*
X123948854Y-95498309D01*
X124373118Y-95922573D01*
X123330136Y-96965555D01*
X122905872Y-96541291D01*
G37*
G36*
X122340187Y-95975606D02*
G01*
X123383169Y-94932624D01*
X123807433Y-95356888D01*
X122764451Y-96399870D01*
X122340187Y-95975606D01*
G37*
G36*
X121774501Y-95409920D02*
G01*
X122817483Y-94366938D01*
X123241747Y-94791202D01*
X122198765Y-95834184D01*
X121774501Y-95409920D01*
G37*
G36*
X121208816Y-94844235D02*
G01*
X122251798Y-93801253D01*
X122676062Y-94225517D01*
X121633080Y-95268499D01*
X121208816Y-94844235D01*
G37*
G36*
X120643130Y-94278549D02*
G01*
X121686112Y-93235567D01*
X122110376Y-93659831D01*
X121067394Y-94702813D01*
X120643130Y-94278549D01*
G37*
G36*
X120077445Y-93712864D02*
G01*
X121120427Y-92669882D01*
X121544691Y-93094146D01*
X120501709Y-94137128D01*
X120077445Y-93712864D01*
G37*
G36*
X119511759Y-93147179D02*
G01*
X120554741Y-92104197D01*
X120979005Y-92528461D01*
X119936023Y-93571443D01*
X119511759Y-93147179D01*
G37*
G36*
X120554741Y-91537803D02*
G01*
X119511759Y-90494821D01*
X119936023Y-90070557D01*
X120979005Y-91113539D01*
X120554741Y-91537803D01*
G37*
G36*
X121120427Y-90972118D02*
G01*
X120077445Y-89929136D01*
X120501709Y-89504872D01*
X121544691Y-90547854D01*
X121120427Y-90972118D01*
G37*
G36*
X121686112Y-90406433D02*
G01*
X120643130Y-89363451D01*
X121067394Y-88939187D01*
X122110376Y-89982169D01*
X121686112Y-90406433D01*
G37*
G36*
X122251798Y-89840747D02*
G01*
X121208816Y-88797765D01*
X121633080Y-88373501D01*
X122676062Y-89416483D01*
X122251798Y-89840747D01*
G37*
G36*
X122817483Y-89275062D02*
G01*
X121774501Y-88232080D01*
X122198765Y-87807816D01*
X123241747Y-88850798D01*
X122817483Y-89275062D01*
G37*
G36*
X123383169Y-88709376D02*
G01*
X122340187Y-87666394D01*
X122764451Y-87242130D01*
X123807433Y-88285112D01*
X123383169Y-88709376D01*
G37*
G36*
X123948854Y-88143691D02*
G01*
X122905872Y-87100709D01*
X123330136Y-86676445D01*
X124373118Y-87719427D01*
X123948854Y-88143691D01*
G37*
G36*
X124514539Y-87578005D02*
G01*
X123471557Y-86535023D01*
X123895821Y-86110759D01*
X124938803Y-87153741D01*
X124514539Y-87578005D01*
G37*
G36*
X125505197Y-87153741D02*
G01*
X126548179Y-86110759D01*
X126972443Y-86535023D01*
X125929461Y-87578005D01*
X125505197Y-87153741D01*
G37*
G36*
X126070882Y-87719427D02*
G01*
X127113864Y-86676445D01*
X127538128Y-87100709D01*
X126495146Y-88143691D01*
X126070882Y-87719427D01*
G37*
G36*
X126636567Y-88285112D02*
G01*
X127679549Y-87242130D01*
X128103813Y-87666394D01*
X127060831Y-88709376D01*
X126636567Y-88285112D01*
G37*
G36*
X127202253Y-88850798D02*
G01*
X128245235Y-87807816D01*
X128669499Y-88232080D01*
X127626517Y-89275062D01*
X127202253Y-88850798D01*
G37*
G36*
X127767938Y-89416483D02*
G01*
X128810920Y-88373501D01*
X129235184Y-88797765D01*
X128192202Y-89840747D01*
X127767938Y-89416483D01*
G37*
G36*
X128333624Y-89982169D02*
G01*
X129376606Y-88939187D01*
X129800870Y-89363451D01*
X128757888Y-90406433D01*
X128333624Y-89982169D01*
G37*
G36*
X128899309Y-90547854D02*
G01*
X129942291Y-89504872D01*
X130366555Y-89929136D01*
X129323573Y-90972118D01*
X128899309Y-90547854D01*
G37*
G36*
X129464995Y-91113539D02*
G01*
X130507977Y-90070557D01*
X130932241Y-90494821D01*
X129889259Y-91537803D01*
X129464995Y-91113539D01*
G37*
G36*
X130507977Y-93571443D02*
G01*
X129464995Y-92528461D01*
X129889259Y-92104197D01*
X130932241Y-93147179D01*
X130507977Y-93571443D01*
G37*
G36*
X129942291Y-94137128D02*
G01*
X128899309Y-93094146D01*
X129323573Y-92669882D01*
X130366555Y-93712864D01*
X129942291Y-94137128D01*
G37*
G36*
X129376606Y-94702813D02*
G01*
X128333624Y-93659831D01*
X128757888Y-93235567D01*
X129800870Y-94278549D01*
X129376606Y-94702813D01*
G37*
G36*
X128810920Y-95268499D02*
G01*
X127767938Y-94225517D01*
X128192202Y-93801253D01*
X129235184Y-94844235D01*
X128810920Y-95268499D01*
G37*
G36*
X128245235Y-95834184D02*
G01*
X127202253Y-94791202D01*
X127626517Y-94366938D01*
X128669499Y-95409920D01*
X128245235Y-95834184D01*
G37*
G36*
X127679549Y-96399870D02*
G01*
X126636567Y-95356888D01*
X127060831Y-94932624D01*
X128103813Y-95975606D01*
X127679549Y-96399870D01*
G37*
G36*
X127113864Y-96965555D02*
G01*
X126070882Y-95922573D01*
X126495146Y-95498309D01*
X127538128Y-96541291D01*
X127113864Y-96965555D01*
G37*
G36*
X126548179Y-97531241D02*
G01*
X125505197Y-96488259D01*
X125929461Y-96063995D01*
X126972443Y-97106977D01*
X126548179Y-97531241D01*
G37*
%TD*%
M02*
