M48
; DRILL file {KiCad (5.1.6)-1} date 07/23/21 13:19:58
; FORMAT={-:-/ absolute / inch / decimal}
; #@! TF.CreationDate,2021-07-23T13:19:58-04:00
; #@! TF.GenerationSoftware,Kicad,Pcbnew,(5.1.6)-1
FMAT,2
INCH
T1C0.0157
T2C0.0315
T3C0.0394
%
G90
G05
T1
X4.67Y-3.705
X4.71Y-3.63
X4.72Y-3.91
X4.72Y-4.01
X4.75Y-3.43
X4.7533Y-3.7591
X4.785Y-3.82
X4.795Y-3.86
X4.82Y-3.66
X4.8355Y-3.8595
X4.86Y-3.215
X4.89Y-3.66
X4.9253Y-3.6925
X4.9425Y-3.3925
X4.9538Y-3.6572
X4.985Y-3.685
X5.005Y-3.565
X5.015Y-3.615
X5.0185Y-3.6593
X5.03Y-3.3624
X5.04Y-3.395
X5.065Y-3.42
X5.1Y-4.185
X5.1035Y-3.4636
X5.14Y-3.42
X5.14Y-3.715
X5.145Y-3.82
X5.15Y-4.145
X5.155Y-3.335
X5.2Y-3.815
T2
X4.632Y-3.064
X4.632Y-3.164
X4.632Y-3.264
X4.632Y-3.364
X4.632Y-3.464
X4.632Y-3.564
X4.632Y-3.664
X4.632Y-3.764
X4.632Y-3.864
X4.632Y-3.964
X4.632Y-4.064
X4.632Y-4.164
X5.232Y-3.064
X5.232Y-3.164
X5.232Y-3.264
X5.232Y-3.364
X5.232Y-3.464
X5.232Y-3.564
X5.232Y-3.664
X5.232Y-3.764
X5.232Y-3.864
X5.232Y-3.964
X5.232Y-4.064
X5.232Y-4.164
T3
X4.78Y-3.085
X4.98Y-3.085
X5.08Y-3.085
X5.025Y-3.195
X5.125Y-3.195
T0
M30
