%TF.GenerationSoftware,KiCad,Pcbnew,(5.1.6)-1*%
%TF.CreationDate,2021-07-23T13:19:56-04:00*%
%TF.ProjectId,RTC-12887-switch,5254432d-3132-4383-9837-2d7377697463,rev?*%
%TF.SameCoordinates,Original*%
%TF.FileFunction,Copper,L1,Top*%
%TF.FilePolarity,Positive*%
%FSLAX46Y46*%
G04 Gerber Fmt 4.6, Leading zero omitted, Abs format (unit mm)*
G04 Created by KiCad (PCBNEW (5.1.6)-1) date 2021-07-23 13:19:56*
%MOMM*%
%LPD*%
G01*
G04 APERTURE LIST*
%TA.AperFunction,ComponentPad*%
%ADD10R,1.700000X1.700000*%
%TD*%
%TA.AperFunction,ComponentPad*%
%ADD11O,1.700000X1.700000*%
%TD*%
%TA.AperFunction,SMDPad,CuDef*%
%ADD12R,3.500000X2.600000*%
%TD*%
%TA.AperFunction,ComponentPad*%
%ADD13R,1.600000X1.600000*%
%TD*%
%TA.AperFunction,ComponentPad*%
%ADD14O,1.600000X1.600000*%
%TD*%
%TA.AperFunction,ViaPad*%
%ADD15C,0.800000*%
%TD*%
%TA.AperFunction,Conductor*%
%ADD16C,0.250000*%
%TD*%
%TA.AperFunction,Conductor*%
%ADD17C,0.400000*%
%TD*%
%TA.AperFunction,Conductor*%
%ADD18C,0.254000*%
%TD*%
G04 APERTURE END LIST*
D10*
%TO.P,J1,1*%
%TO.N,/BC*%
X121412000Y-78359000D03*
D11*
%TO.P,J1,3*%
%TO.N,/COM*%
X126492000Y-78359000D03*
%TO.P,J1,4*%
X129032000Y-78359000D03*
%TD*%
D12*
%TO.P,U1,1*%
%TO.N,/BC*%
X125349000Y-84183000D03*
%TO.P,U1,2*%
%TO.N,/COM*%
X125349000Y-105283000D03*
%TD*%
D13*
%TO.P,IC2,1*%
%TO.N,/MOT*%
X117653001Y-77825001D03*
D14*
%TO.P,IC2,13*%
%TO.N,/CS*%
X132893001Y-105765001D03*
%TO.P,IC2,2*%
%TO.N,Net-(IC2-Pad2)*%
X117653001Y-80365001D03*
%TO.P,IC2,14*%
%TO.N,/AS*%
X132893001Y-103225001D03*
%TO.P,IC2,3*%
%TO.N,Net-(IC2-Pad3)*%
X117653001Y-82905001D03*
%TO.P,IC2,15*%
%TO.N,/RW*%
X132893001Y-100685001D03*
%TO.P,IC2,4*%
%TO.N,/AD0*%
X117653001Y-85445001D03*
%TO.P,IC2,16*%
%TO.N,Net-(IC2-Pad16)*%
X132893001Y-98145001D03*
%TO.P,IC2,5*%
%TO.N,/AD1*%
X117653001Y-87985001D03*
%TO.P,IC2,17*%
%TO.N,/DS*%
X132893001Y-95605001D03*
%TO.P,IC2,6*%
%TO.N,/AD2*%
X117653001Y-90525001D03*
%TO.P,IC2,18*%
%TO.N,/RESET*%
X132893001Y-93065001D03*
%TO.P,IC2,7*%
%TO.N,/AD3*%
X117653001Y-93065001D03*
%TO.P,IC2,19*%
%TO.N,/IRQ*%
X132893001Y-90525001D03*
%TO.P,IC2,8*%
%TO.N,/AD4*%
X117653001Y-95605001D03*
%TO.P,IC2,20*%
%TO.N,Net-(IC2-Pad20)*%
X132893001Y-87985001D03*
%TO.P,IC2,9*%
%TO.N,/AD5*%
X117653001Y-98145001D03*
%TO.P,IC2,21*%
%TO.N,Net-(IC2-Pad21)*%
X132893001Y-85445001D03*
%TO.P,IC2,10*%
%TO.N,/AD6*%
X117653001Y-100685001D03*
%TO.P,IC2,22*%
%TO.N,Net-(IC2-Pad22)*%
X132893001Y-82905001D03*
%TO.P,IC2,11*%
%TO.N,/AD7*%
X117653001Y-103225001D03*
%TO.P,IC2,23*%
%TO.N,/SQW*%
X132893001Y-80365001D03*
%TO.P,IC2,12*%
%TO.N,GND*%
X117653001Y-105765001D03*
%TO.P,IC2,24*%
%TO.N,/VCC*%
X132893001Y-77825001D03*
%TD*%
D10*
%TO.P,EN,1*%
%TO.N,/COM*%
X127635000Y-81153000D03*
D11*
%TO.P,EN,2*%
%TO.N,GND*%
X130175000Y-81153000D03*
%TD*%
D15*
%TO.N,GND*%
X127381000Y-91821000D03*
X120650000Y-87122000D03*
X119888000Y-99314000D03*
X119888000Y-101854000D03*
X123444000Y-81661000D03*
X125539500Y-86169500D03*
X130683000Y-97028000D03*
X129540000Y-106299000D03*
%TO.N,/MOT*%
X127469017Y-92945222D03*
%TO.N,/AD0*%
X122821692Y-98031306D03*
%TO.N,/AD1*%
X121793000Y-98044000D03*
%TO.N,/AD2*%
X121539000Y-97028000D03*
%TO.N,/AD3*%
X118618000Y-94107000D03*
X120733957Y-95480057D03*
%TO.N,/AD5*%
X119634000Y-92202000D03*
%TO.N,/AD6*%
X122428000Y-92964014D03*
%TO.N,/AD7*%
X124206004Y-92964000D03*
%TO.N,/CS*%
X125101409Y-93790270D03*
%TO.N,/AS*%
X125826419Y-92892459D03*
%TO.N,/RW*%
X126619000Y-93599004D03*
%TO.N,/DS*%
X128016000Y-86233000D03*
%TO.N,/RESET*%
X128651000Y-86868000D03*
%TO.N,/IRQ*%
X129628990Y-87976336D03*
%TO.N,/BC*%
X130556000Y-86868000D03*
%TO.N,/SQW*%
X132080000Y-96901000D03*
X130556000Y-94361000D03*
%TO.N,/VCC*%
X127127000Y-90551000D03*
X127762000Y-85405002D03*
%TO.N,/COM*%
X130810000Y-105283000D03*
X130937000Y-84709000D03*
%TD*%
D16*
%TO.N,GND*%
X125539500Y-90036502D02*
X125539500Y-86169500D01*
X127323998Y-91821000D02*
X125539500Y-90036502D01*
X127381000Y-91821000D02*
X127323998Y-91821000D01*
%TO.N,/MOT*%
X122428000Y-87904205D02*
X127469017Y-92945222D01*
X117653001Y-77825001D02*
X122428000Y-82600000D01*
X122428000Y-82600000D02*
X122428000Y-87904205D01*
%TO.N,/AD0*%
X117653001Y-85445001D02*
X121702995Y-89494995D01*
X121702995Y-93438998D02*
X122821692Y-94557695D01*
X121702995Y-89494995D02*
X121702995Y-93438998D01*
X122821692Y-94557695D02*
X122821692Y-98031306D01*
%TO.N,/AD1*%
X122358989Y-97319393D02*
X122358989Y-94731402D01*
X122358989Y-94731402D02*
X121252988Y-93625401D01*
X121252988Y-91584988D02*
X117653001Y-87985001D01*
X121793000Y-97885382D02*
X122358989Y-97319393D01*
X121252988Y-93625401D02*
X121252988Y-91584988D01*
X121793000Y-98044000D02*
X121793000Y-97885382D01*
%TO.N,/AD2*%
X121539000Y-97028000D02*
X121908978Y-96658022D01*
X121908978Y-94917802D02*
X120802977Y-93811801D01*
X120802977Y-93811801D02*
X120802977Y-92297975D01*
X120802977Y-92297975D02*
X119030003Y-90525001D01*
X119030003Y-90525001D02*
X117653001Y-90525001D01*
X121908978Y-96658022D02*
X121908978Y-94917802D01*
%TO.N,/AD3*%
X119991057Y-95480057D02*
X120733957Y-95480057D01*
X118618000Y-94107000D02*
X119991057Y-95480057D01*
%TO.N,/AD5*%
X119634000Y-92202000D02*
X119634000Y-93279235D01*
X121458967Y-95886766D02*
X119200732Y-98145001D01*
X119200732Y-98145001D02*
X117653001Y-98145001D01*
X121458967Y-95104202D02*
X121458967Y-95886766D01*
X119634000Y-93279235D02*
X121458967Y-95104202D01*
%TO.N,/AD6*%
X123571000Y-94107014D02*
X122428000Y-92964014D01*
X123571000Y-98494694D02*
X123571000Y-94107014D01*
X117653001Y-100685001D02*
X121380693Y-100685001D01*
X121380693Y-100685001D02*
X123571000Y-98494694D01*
%TO.N,/AD7*%
X119913999Y-103225001D02*
X117653001Y-103225001D01*
X124206004Y-92964000D02*
X124206004Y-98932996D01*
X124206004Y-98932996D02*
X119913999Y-103225001D01*
%TO.N,/CS*%
X132893001Y-105765001D02*
X125101409Y-97973409D01*
X125101409Y-97973409D02*
X125101409Y-93790270D01*
%TO.N,/AS*%
X125826419Y-96158419D02*
X125826419Y-92892459D01*
X132893001Y-103225001D02*
X125826419Y-96158419D01*
%TO.N,/RW*%
X132893001Y-100685001D02*
X126619000Y-94411000D01*
X126619000Y-94411000D02*
X126619000Y-93599004D01*
%TO.N,/DS*%
X127925999Y-90637999D02*
X132893001Y-95605001D01*
X127925999Y-86519999D02*
X127925999Y-90637999D01*
X128016000Y-86429998D02*
X127925999Y-86519999D01*
X128016000Y-86233000D02*
X128016000Y-86429998D01*
%TO.N,/RESET*%
X128651000Y-88823000D02*
X132893001Y-93065001D01*
X128651000Y-86868000D02*
X128651000Y-88823000D01*
%TO.N,/IRQ*%
X129632336Y-87976336D02*
X129628990Y-87976336D01*
X132893001Y-90525001D02*
X132181001Y-90525001D01*
X132181001Y-90525001D02*
X129632336Y-87976336D01*
D17*
%TO.N,/BC*%
X121412000Y-78359000D02*
X123825000Y-78359000D01*
X125349000Y-79883000D02*
X125349000Y-84183000D01*
X123825000Y-78359000D02*
X125349000Y-79883000D01*
X125349000Y-84183000D02*
X127871000Y-84183000D01*
X127871000Y-84183000D02*
X130556000Y-86868000D01*
D16*
%TO.N,/SQW*%
X132080000Y-96901000D02*
X130556000Y-95377000D01*
X130556000Y-95377000D02*
X130556000Y-94361000D01*
X130556000Y-94361000D02*
X130556000Y-94361000D01*
%TO.N,/VCC*%
X127127000Y-86040002D02*
X127762000Y-85405002D01*
X127127000Y-90551000D02*
X127127000Y-86040002D01*
X127762000Y-85405002D02*
X127762000Y-85405002D01*
D17*
%TO.N,/COM*%
X126492000Y-78359000D02*
X129032000Y-78359000D01*
X126492000Y-80010000D02*
X127635000Y-81153000D01*
X126492000Y-78359000D02*
X126492000Y-80010000D01*
D16*
X125349000Y-105283000D02*
X130810000Y-105283000D01*
X127635000Y-81153000D02*
X127635000Y-81407000D01*
X127635000Y-81407000D02*
X130937000Y-84709000D01*
X130937000Y-84709000D02*
X130937000Y-84709000D01*
%TD*%
D18*
%TO.N,GND*%
G36*
X130389924Y-104336725D02*
G01*
X130319744Y-104365795D01*
X130150226Y-104479063D01*
X130106289Y-104523000D01*
X127737072Y-104523000D01*
X127737072Y-103983000D01*
X127724812Y-103858518D01*
X127688502Y-103738820D01*
X127629537Y-103628506D01*
X127550185Y-103531815D01*
X127453494Y-103452463D01*
X127343180Y-103393498D01*
X127223482Y-103357188D01*
X127099000Y-103344928D01*
X123599000Y-103344928D01*
X123474518Y-103357188D01*
X123354820Y-103393498D01*
X123244506Y-103452463D01*
X123147815Y-103531815D01*
X123068463Y-103628506D01*
X123009498Y-103738820D01*
X122973188Y-103858518D01*
X122960928Y-103983000D01*
X122960928Y-106583000D01*
X122968019Y-106655000D01*
X118770939Y-106655000D01*
X118884038Y-106502421D01*
X119004247Y-106248088D01*
X119044905Y-106114040D01*
X118922916Y-105892001D01*
X117780001Y-105892001D01*
X117780001Y-105912001D01*
X117526001Y-105912001D01*
X117526001Y-105892001D01*
X117506001Y-105892001D01*
X117506001Y-105638001D01*
X117526001Y-105638001D01*
X117526001Y-105618001D01*
X117780001Y-105618001D01*
X117780001Y-105638001D01*
X118922916Y-105638001D01*
X119044905Y-105415962D01*
X119004247Y-105281914D01*
X118884038Y-105027581D01*
X118716520Y-104801587D01*
X118508132Y-104612616D01*
X118322136Y-104501068D01*
X118332728Y-104496681D01*
X118567760Y-104339638D01*
X118767638Y-104139760D01*
X118871044Y-103985001D01*
X119876677Y-103985001D01*
X119913999Y-103988677D01*
X119951321Y-103985001D01*
X119951332Y-103985001D01*
X120062985Y-103974004D01*
X120206246Y-103930547D01*
X120338275Y-103859975D01*
X120454000Y-103765002D01*
X120477803Y-103735998D01*
X124717007Y-99496795D01*
X124746005Y-99472997D01*
X124840978Y-99357272D01*
X124911550Y-99225243D01*
X124955007Y-99081982D01*
X124966004Y-98970329D01*
X124966004Y-98970321D01*
X124969680Y-98932996D01*
X124967876Y-98914677D01*
X130389924Y-104336725D01*
G37*
X130389924Y-104336725D02*
X130319744Y-104365795D01*
X130150226Y-104479063D01*
X130106289Y-104523000D01*
X127737072Y-104523000D01*
X127737072Y-103983000D01*
X127724812Y-103858518D01*
X127688502Y-103738820D01*
X127629537Y-103628506D01*
X127550185Y-103531815D01*
X127453494Y-103452463D01*
X127343180Y-103393498D01*
X127223482Y-103357188D01*
X127099000Y-103344928D01*
X123599000Y-103344928D01*
X123474518Y-103357188D01*
X123354820Y-103393498D01*
X123244506Y-103452463D01*
X123147815Y-103531815D01*
X123068463Y-103628506D01*
X123009498Y-103738820D01*
X122973188Y-103858518D01*
X122960928Y-103983000D01*
X122960928Y-106583000D01*
X122968019Y-106655000D01*
X118770939Y-106655000D01*
X118884038Y-106502421D01*
X119004247Y-106248088D01*
X119044905Y-106114040D01*
X118922916Y-105892001D01*
X117780001Y-105892001D01*
X117780001Y-105912001D01*
X117526001Y-105912001D01*
X117526001Y-105892001D01*
X117506001Y-105892001D01*
X117506001Y-105638001D01*
X117526001Y-105638001D01*
X117526001Y-105618001D01*
X117780001Y-105618001D01*
X117780001Y-105638001D01*
X118922916Y-105638001D01*
X119044905Y-105415962D01*
X119004247Y-105281914D01*
X118884038Y-105027581D01*
X118716520Y-104801587D01*
X118508132Y-104612616D01*
X118322136Y-104501068D01*
X118332728Y-104496681D01*
X118567760Y-104339638D01*
X118767638Y-104139760D01*
X118871044Y-103985001D01*
X119876677Y-103985001D01*
X119913999Y-103988677D01*
X119951321Y-103985001D01*
X119951332Y-103985001D01*
X120062985Y-103974004D01*
X120206246Y-103930547D01*
X120338275Y-103859975D01*
X120454000Y-103765002D01*
X120477803Y-103735998D01*
X124717007Y-99496795D01*
X124746005Y-99472997D01*
X124840978Y-99357272D01*
X124911550Y-99225243D01*
X124955007Y-99081982D01*
X124966004Y-98970329D01*
X124966004Y-98970321D01*
X124969680Y-98932996D01*
X124967876Y-98914677D01*
X130389924Y-104336725D01*
G36*
X130150226Y-106086937D02*
G01*
X130319744Y-106200205D01*
X130508102Y-106278226D01*
X130708061Y-106318000D01*
X130911939Y-106318000D01*
X131111898Y-106278226D01*
X131300256Y-106200205D01*
X131469774Y-106086937D01*
X131489918Y-106066793D01*
X131513148Y-106183575D01*
X131621321Y-106444728D01*
X131761820Y-106655000D01*
X127729981Y-106655000D01*
X127737072Y-106583000D01*
X127737072Y-106043000D01*
X130106289Y-106043000D01*
X130150226Y-106086937D01*
G37*
X130150226Y-106086937D02*
X130319744Y-106200205D01*
X130508102Y-106278226D01*
X130708061Y-106318000D01*
X130911939Y-106318000D01*
X131111898Y-106278226D01*
X131300256Y-106200205D01*
X131469774Y-106086937D01*
X131489918Y-106066793D01*
X131513148Y-106183575D01*
X131621321Y-106444728D01*
X131761820Y-106655000D01*
X127729981Y-106655000D01*
X127737072Y-106583000D01*
X127737072Y-106043000D01*
X130106289Y-106043000D01*
X130150226Y-106086937D01*
G36*
X119599198Y-102465001D02*
G01*
X118871044Y-102465001D01*
X118767638Y-102310242D01*
X118567760Y-102110364D01*
X118335242Y-101955001D01*
X118567760Y-101799638D01*
X118767638Y-101599760D01*
X118871044Y-101445001D01*
X120619198Y-101445001D01*
X119599198Y-102465001D01*
G37*
X119599198Y-102465001D02*
X118871044Y-102465001D01*
X118767638Y-102310242D01*
X118567760Y-102110364D01*
X118335242Y-101955001D01*
X118567760Y-101799638D01*
X118767638Y-101599760D01*
X118871044Y-101445001D01*
X120619198Y-101445001D01*
X119599198Y-102465001D01*
G36*
X120735063Y-97687774D02*
G01*
X120796383Y-97749094D01*
X120758000Y-97942061D01*
X120758000Y-98145939D01*
X120797774Y-98345898D01*
X120875795Y-98534256D01*
X120989063Y-98703774D01*
X121133226Y-98847937D01*
X121302744Y-98961205D01*
X121491102Y-99039226D01*
X121691061Y-99079000D01*
X121894939Y-99079000D01*
X121916102Y-99074790D01*
X121065892Y-99925001D01*
X118871044Y-99925001D01*
X118767638Y-99770242D01*
X118567760Y-99570364D01*
X118335242Y-99415001D01*
X118567760Y-99259638D01*
X118767638Y-99059760D01*
X118871044Y-98905001D01*
X119163410Y-98905001D01*
X119200732Y-98908677D01*
X119238054Y-98905001D01*
X119238065Y-98905001D01*
X119349718Y-98894004D01*
X119492979Y-98850547D01*
X119625008Y-98779975D01*
X119740733Y-98685002D01*
X119764536Y-98655998D01*
X120734141Y-97686394D01*
X120735063Y-97687774D01*
G37*
X120735063Y-97687774D02*
X120796383Y-97749094D01*
X120758000Y-97942061D01*
X120758000Y-98145939D01*
X120797774Y-98345898D01*
X120875795Y-98534256D01*
X120989063Y-98703774D01*
X121133226Y-98847937D01*
X121302744Y-98961205D01*
X121491102Y-99039226D01*
X121691061Y-99079000D01*
X121894939Y-99079000D01*
X121916102Y-99074790D01*
X121065892Y-99925001D01*
X118871044Y-99925001D01*
X118767638Y-99770242D01*
X118567760Y-99570364D01*
X118335242Y-99415001D01*
X118567760Y-99259638D01*
X118767638Y-99059760D01*
X118871044Y-98905001D01*
X119163410Y-98905001D01*
X119200732Y-98908677D01*
X119238054Y-98905001D01*
X119238065Y-98905001D01*
X119349718Y-98894004D01*
X119492979Y-98850547D01*
X119625008Y-98779975D01*
X119740733Y-98685002D01*
X119764536Y-98655998D01*
X120734141Y-97686394D01*
X120735063Y-97687774D01*
G36*
X129833244Y-93620045D02*
G01*
X129752063Y-93701226D01*
X129638795Y-93870744D01*
X129560774Y-94059102D01*
X129521000Y-94259061D01*
X129521000Y-94462939D01*
X129560774Y-94662898D01*
X129638795Y-94851256D01*
X129752063Y-95020774D01*
X129796000Y-95064711D01*
X129796000Y-95339677D01*
X129792324Y-95377000D01*
X129796000Y-95414322D01*
X129796000Y-95414332D01*
X129806997Y-95525985D01*
X129849714Y-95666805D01*
X129850454Y-95669246D01*
X129921026Y-95801276D01*
X129960871Y-95849826D01*
X130015999Y-95917001D01*
X130045002Y-95940803D01*
X131045000Y-96940802D01*
X131045000Y-97002939D01*
X131084774Y-97202898D01*
X131162795Y-97391256D01*
X131276063Y-97560774D01*
X131420226Y-97704937D01*
X131506020Y-97762262D01*
X131458001Y-98003666D01*
X131458001Y-98175199D01*
X127470458Y-94187657D01*
X127536205Y-94089260D01*
X127582305Y-93977964D01*
X127770915Y-93940448D01*
X127959273Y-93862427D01*
X128128791Y-93749159D01*
X128272954Y-93604996D01*
X128386222Y-93435478D01*
X128464243Y-93247120D01*
X128504017Y-93047161D01*
X128504017Y-92843283D01*
X128464243Y-92643324D01*
X128386222Y-92454966D01*
X128272954Y-92285448D01*
X128128791Y-92141285D01*
X127959273Y-92028017D01*
X127770915Y-91949996D01*
X127570956Y-91910222D01*
X127508819Y-91910222D01*
X127184597Y-91586000D01*
X127228939Y-91586000D01*
X127428898Y-91546226D01*
X127617256Y-91468205D01*
X127655710Y-91442511D01*
X129833244Y-93620045D01*
G37*
X129833244Y-93620045D02*
X129752063Y-93701226D01*
X129638795Y-93870744D01*
X129560774Y-94059102D01*
X129521000Y-94259061D01*
X129521000Y-94462939D01*
X129560774Y-94662898D01*
X129638795Y-94851256D01*
X129752063Y-95020774D01*
X129796000Y-95064711D01*
X129796000Y-95339677D01*
X129792324Y-95377000D01*
X129796000Y-95414322D01*
X129796000Y-95414332D01*
X129806997Y-95525985D01*
X129849714Y-95666805D01*
X129850454Y-95669246D01*
X129921026Y-95801276D01*
X129960871Y-95849826D01*
X130015999Y-95917001D01*
X130045002Y-95940803D01*
X131045000Y-96940802D01*
X131045000Y-97002939D01*
X131084774Y-97202898D01*
X131162795Y-97391256D01*
X131276063Y-97560774D01*
X131420226Y-97704937D01*
X131506020Y-97762262D01*
X131458001Y-98003666D01*
X131458001Y-98175199D01*
X127470458Y-94187657D01*
X127536205Y-94089260D01*
X127582305Y-93977964D01*
X127770915Y-93940448D01*
X127959273Y-93862427D01*
X128128791Y-93749159D01*
X128272954Y-93604996D01*
X128386222Y-93435478D01*
X128464243Y-93247120D01*
X128504017Y-93047161D01*
X128504017Y-92843283D01*
X128464243Y-92643324D01*
X128386222Y-92454966D01*
X128272954Y-92285448D01*
X128128791Y-92141285D01*
X127959273Y-92028017D01*
X127770915Y-91949996D01*
X127570956Y-91910222D01*
X127508819Y-91910222D01*
X127184597Y-91586000D01*
X127228939Y-91586000D01*
X127428898Y-91546226D01*
X127617256Y-91468205D01*
X127655710Y-91442511D01*
X129833244Y-93620045D01*
G36*
X121668000Y-82914802D02*
G01*
X121668001Y-87866873D01*
X121664324Y-87904205D01*
X121668001Y-87941538D01*
X121678998Y-88053191D01*
X121685310Y-88073998D01*
X121722454Y-88196451D01*
X121793026Y-88328481D01*
X121864201Y-88415207D01*
X121888000Y-88444206D01*
X121916998Y-88468004D01*
X125398448Y-91949455D01*
X125336163Y-91975254D01*
X125166645Y-92088522D01*
X125022482Y-92232685D01*
X124988804Y-92283089D01*
X124865778Y-92160063D01*
X124696260Y-92046795D01*
X124507902Y-91968774D01*
X124307943Y-91929000D01*
X124104065Y-91929000D01*
X123904106Y-91968774D01*
X123715748Y-92046795D01*
X123546230Y-92160063D01*
X123402067Y-92304226D01*
X123316997Y-92431542D01*
X123231937Y-92304240D01*
X123087774Y-92160077D01*
X122918256Y-92046809D01*
X122729898Y-91968788D01*
X122529939Y-91929014D01*
X122462995Y-91929014D01*
X122462995Y-89532317D01*
X122466671Y-89494994D01*
X122462995Y-89457671D01*
X122462995Y-89457662D01*
X122451998Y-89346009D01*
X122408541Y-89202748D01*
X122337969Y-89070719D01*
X122289235Y-89011336D01*
X122266794Y-88983991D01*
X122266790Y-88983987D01*
X122242996Y-88954994D01*
X122214004Y-88931201D01*
X119051689Y-85768887D01*
X119088001Y-85586336D01*
X119088001Y-85303666D01*
X119032854Y-85026427D01*
X118924681Y-84765274D01*
X118767638Y-84530242D01*
X118567760Y-84330364D01*
X118335242Y-84175001D01*
X118567760Y-84019638D01*
X118767638Y-83819760D01*
X118924681Y-83584728D01*
X119032854Y-83323575D01*
X119088001Y-83046336D01*
X119088001Y-82763666D01*
X119032854Y-82486427D01*
X118924681Y-82225274D01*
X118767638Y-81990242D01*
X118567760Y-81790364D01*
X118335242Y-81635001D01*
X118567760Y-81479638D01*
X118767638Y-81279760D01*
X118924681Y-81044728D01*
X119032854Y-80783575D01*
X119088001Y-80506336D01*
X119088001Y-80334802D01*
X121668000Y-82914802D01*
G37*
X121668000Y-82914802D02*
X121668001Y-87866873D01*
X121664324Y-87904205D01*
X121668001Y-87941538D01*
X121678998Y-88053191D01*
X121685310Y-88073998D01*
X121722454Y-88196451D01*
X121793026Y-88328481D01*
X121864201Y-88415207D01*
X121888000Y-88444206D01*
X121916998Y-88468004D01*
X125398448Y-91949455D01*
X125336163Y-91975254D01*
X125166645Y-92088522D01*
X125022482Y-92232685D01*
X124988804Y-92283089D01*
X124865778Y-92160063D01*
X124696260Y-92046795D01*
X124507902Y-91968774D01*
X124307943Y-91929000D01*
X124104065Y-91929000D01*
X123904106Y-91968774D01*
X123715748Y-92046795D01*
X123546230Y-92160063D01*
X123402067Y-92304226D01*
X123316997Y-92431542D01*
X123231937Y-92304240D01*
X123087774Y-92160077D01*
X122918256Y-92046809D01*
X122729898Y-91968788D01*
X122529939Y-91929014D01*
X122462995Y-91929014D01*
X122462995Y-89532317D01*
X122466671Y-89494994D01*
X122462995Y-89457671D01*
X122462995Y-89457662D01*
X122451998Y-89346009D01*
X122408541Y-89202748D01*
X122337969Y-89070719D01*
X122289235Y-89011336D01*
X122266794Y-88983991D01*
X122266790Y-88983987D01*
X122242996Y-88954994D01*
X122214004Y-88931201D01*
X119051689Y-85768887D01*
X119088001Y-85586336D01*
X119088001Y-85303666D01*
X119032854Y-85026427D01*
X118924681Y-84765274D01*
X118767638Y-84530242D01*
X118567760Y-84330364D01*
X118335242Y-84175001D01*
X118567760Y-84019638D01*
X118767638Y-83819760D01*
X118924681Y-83584728D01*
X119032854Y-83323575D01*
X119088001Y-83046336D01*
X119088001Y-82763666D01*
X119032854Y-82486427D01*
X118924681Y-82225274D01*
X118767638Y-81990242D01*
X118567760Y-81790364D01*
X118335242Y-81635001D01*
X118567760Y-81479638D01*
X118767638Y-81279760D01*
X118924681Y-81044728D01*
X119032854Y-80783575D01*
X119088001Y-80506336D01*
X119088001Y-80334802D01*
X121668000Y-82914802D01*
G36*
X123244506Y-86013537D02*
G01*
X123354820Y-86072502D01*
X123474518Y-86108812D01*
X123599000Y-86121072D01*
X126367001Y-86121072D01*
X126367000Y-89847289D01*
X126323063Y-89891226D01*
X126209795Y-90060744D01*
X126131774Y-90249102D01*
X126092000Y-90449061D01*
X126092000Y-90493403D01*
X123188000Y-87589404D01*
X123188000Y-85967164D01*
X123244506Y-86013537D01*
G37*
X123244506Y-86013537D02*
X123354820Y-86072502D01*
X123474518Y-86108812D01*
X123599000Y-86121072D01*
X126367001Y-86121072D01*
X126367000Y-89847289D01*
X126323063Y-89891226D01*
X126209795Y-90060744D01*
X126131774Y-90249102D01*
X126092000Y-90449061D01*
X126092000Y-90493403D01*
X123188000Y-87589404D01*
X123188000Y-85967164D01*
X123244506Y-86013537D01*
G36*
X131621321Y-77145274D02*
G01*
X131513148Y-77406427D01*
X131458001Y-77683666D01*
X131458001Y-77966336D01*
X131513148Y-78243575D01*
X131621321Y-78504728D01*
X131778364Y-78739760D01*
X131978242Y-78939638D01*
X132210760Y-79095001D01*
X131978242Y-79250364D01*
X131778364Y-79450242D01*
X131621321Y-79685274D01*
X131513148Y-79946427D01*
X131458001Y-80223666D01*
X131458001Y-80419081D01*
X131370178Y-80271645D01*
X131175269Y-80055412D01*
X130941920Y-79881359D01*
X130679099Y-79756175D01*
X130531890Y-79711524D01*
X130302000Y-79832845D01*
X130302000Y-81026000D01*
X131495814Y-81026000D01*
X131561627Y-80900615D01*
X131621321Y-81044728D01*
X131778364Y-81279760D01*
X131978242Y-81479638D01*
X132210760Y-81635001D01*
X131978242Y-81790364D01*
X131778364Y-81990242D01*
X131621321Y-82225274D01*
X131513148Y-82486427D01*
X131458001Y-82763666D01*
X131458001Y-83046336D01*
X131513148Y-83323575D01*
X131621321Y-83584728D01*
X131778364Y-83819760D01*
X131978242Y-84019638D01*
X132210760Y-84175001D01*
X131978242Y-84330364D01*
X131923228Y-84385378D01*
X131854205Y-84218744D01*
X131740937Y-84049226D01*
X131596774Y-83905063D01*
X131427256Y-83791795D01*
X131238898Y-83713774D01*
X131038939Y-83674000D01*
X130976802Y-83674000D01*
X129869930Y-82567129D01*
X130048000Y-82473155D01*
X130048000Y-81280000D01*
X130302000Y-81280000D01*
X130302000Y-82473155D01*
X130531890Y-82594476D01*
X130679099Y-82549825D01*
X130941920Y-82424641D01*
X131175269Y-82250588D01*
X131370178Y-82034355D01*
X131519157Y-81784252D01*
X131616481Y-81509891D01*
X131495814Y-81280000D01*
X130302000Y-81280000D01*
X130048000Y-81280000D01*
X130028000Y-81280000D01*
X130028000Y-81026000D01*
X130048000Y-81026000D01*
X130048000Y-79832845D01*
X129818110Y-79711524D01*
X129670901Y-79756175D01*
X129408080Y-79881359D01*
X129174731Y-80055412D01*
X129098966Y-80139466D01*
X129074502Y-80058820D01*
X129015537Y-79948506D01*
X128936185Y-79851815D01*
X128926662Y-79844000D01*
X129178260Y-79844000D01*
X129465158Y-79786932D01*
X129735411Y-79674990D01*
X129978632Y-79512475D01*
X130185475Y-79305632D01*
X130347990Y-79062411D01*
X130459932Y-78792158D01*
X130517000Y-78505260D01*
X130517000Y-78212740D01*
X130459932Y-77925842D01*
X130347990Y-77655589D01*
X130185475Y-77412368D01*
X129978632Y-77205525D01*
X129735411Y-77043010D01*
X129600190Y-76987000D01*
X131727076Y-76987000D01*
X131621321Y-77145274D01*
G37*
X131621321Y-77145274D02*
X131513148Y-77406427D01*
X131458001Y-77683666D01*
X131458001Y-77966336D01*
X131513148Y-78243575D01*
X131621321Y-78504728D01*
X131778364Y-78739760D01*
X131978242Y-78939638D01*
X132210760Y-79095001D01*
X131978242Y-79250364D01*
X131778364Y-79450242D01*
X131621321Y-79685274D01*
X131513148Y-79946427D01*
X131458001Y-80223666D01*
X131458001Y-80419081D01*
X131370178Y-80271645D01*
X131175269Y-80055412D01*
X130941920Y-79881359D01*
X130679099Y-79756175D01*
X130531890Y-79711524D01*
X130302000Y-79832845D01*
X130302000Y-81026000D01*
X131495814Y-81026000D01*
X131561627Y-80900615D01*
X131621321Y-81044728D01*
X131778364Y-81279760D01*
X131978242Y-81479638D01*
X132210760Y-81635001D01*
X131978242Y-81790364D01*
X131778364Y-81990242D01*
X131621321Y-82225274D01*
X131513148Y-82486427D01*
X131458001Y-82763666D01*
X131458001Y-83046336D01*
X131513148Y-83323575D01*
X131621321Y-83584728D01*
X131778364Y-83819760D01*
X131978242Y-84019638D01*
X132210760Y-84175001D01*
X131978242Y-84330364D01*
X131923228Y-84385378D01*
X131854205Y-84218744D01*
X131740937Y-84049226D01*
X131596774Y-83905063D01*
X131427256Y-83791795D01*
X131238898Y-83713774D01*
X131038939Y-83674000D01*
X130976802Y-83674000D01*
X129869930Y-82567129D01*
X130048000Y-82473155D01*
X130048000Y-81280000D01*
X130302000Y-81280000D01*
X130302000Y-82473155D01*
X130531890Y-82594476D01*
X130679099Y-82549825D01*
X130941920Y-82424641D01*
X131175269Y-82250588D01*
X131370178Y-82034355D01*
X131519157Y-81784252D01*
X131616481Y-81509891D01*
X131495814Y-81280000D01*
X130302000Y-81280000D01*
X130048000Y-81280000D01*
X130028000Y-81280000D01*
X130028000Y-81026000D01*
X130048000Y-81026000D01*
X130048000Y-79832845D01*
X129818110Y-79711524D01*
X129670901Y-79756175D01*
X129408080Y-79881359D01*
X129174731Y-80055412D01*
X129098966Y-80139466D01*
X129074502Y-80058820D01*
X129015537Y-79948506D01*
X128936185Y-79851815D01*
X128926662Y-79844000D01*
X129178260Y-79844000D01*
X129465158Y-79786932D01*
X129735411Y-79674990D01*
X129978632Y-79512475D01*
X130185475Y-79305632D01*
X130347990Y-79062411D01*
X130459932Y-78792158D01*
X130517000Y-78505260D01*
X130517000Y-78212740D01*
X130459932Y-77925842D01*
X130347990Y-77655589D01*
X130185475Y-77412368D01*
X129978632Y-77205525D01*
X129735411Y-77043010D01*
X129600190Y-76987000D01*
X131727076Y-76987000D01*
X131621321Y-77145274D01*
G36*
X124514000Y-80228868D02*
G01*
X124514001Y-82244928D01*
X123599000Y-82244928D01*
X123474518Y-82257188D01*
X123354820Y-82293498D01*
X123244506Y-82352463D01*
X123166522Y-82416463D01*
X123133546Y-82307753D01*
X123062974Y-82175724D01*
X122968001Y-82059999D01*
X122939004Y-82036202D01*
X120749874Y-79847072D01*
X122262000Y-79847072D01*
X122386482Y-79834812D01*
X122506180Y-79798502D01*
X122616494Y-79739537D01*
X122713185Y-79660185D01*
X122792537Y-79563494D01*
X122851502Y-79453180D01*
X122887812Y-79333482D01*
X122900072Y-79209000D01*
X122900072Y-79194000D01*
X123479133Y-79194000D01*
X124514000Y-80228868D01*
G37*
X124514000Y-80228868D02*
X124514001Y-82244928D01*
X123599000Y-82244928D01*
X123474518Y-82257188D01*
X123354820Y-82293498D01*
X123244506Y-82352463D01*
X123166522Y-82416463D01*
X123133546Y-82307753D01*
X123062974Y-82175724D01*
X122968001Y-82059999D01*
X122939004Y-82036202D01*
X120749874Y-79847072D01*
X122262000Y-79847072D01*
X122386482Y-79834812D01*
X122506180Y-79798502D01*
X122616494Y-79739537D01*
X122713185Y-79660185D01*
X122792537Y-79563494D01*
X122851502Y-79453180D01*
X122887812Y-79333482D01*
X122900072Y-79209000D01*
X122900072Y-79194000D01*
X123479133Y-79194000D01*
X124514000Y-80228868D01*
%TD*%
M02*
